<?xml version="1.0" standalone="no"?>
<!DOCTYPE svg PUBLIC "-//W3C//DTD SVG 20010904//EN"
 "http://www.w3.org/TR/2001/REC-SVG-20010904/DTD/svg10.dtd">
<svg version="1.0" xmlns="http://www.w3.org/2000/svg"
 width="1024.000000pt" height="1024.000000pt" viewBox="0 0 1024.000000 1024.000000"
 preserveAspectRatio="xMidYMid meet">
<metadata>
Created by potrace 1.11, written by Peter Selinger 2001-2013
</metadata>
<g transform="translate(0.000000,1024.000000) scale(0.100000,-0.100000)"
fill="#000000" stroke="none">
<path d="M6368 10049 c-34 -9 -88 -41 -88 -52 0 -4 6 -5 13 -1 28 17 -6 -11
-40 -32 -21 -13 -32 -24 -25 -24 9 0 11 -7 7 -20 -5 -15 -2 -20 12 -20 16 -1
16 -2 -2 -12 -31 -18 -47 -48 -25 -48 6 0 10 6 10 13 0 8 11 19 25 25 39 18
50 14 30 -8 -14 -15 -15 -20 -4 -20 11 -1 10 -4 -3 -13 -9 -8 -18 -20 -20 -27
-2 -8 -9 -21 -15 -28 -19 -20 -16 -35 7 -29 10 3 21 0 22 -5 2 -6 25 -4 58 7
30 9 67 20 83 25 15 5 27 5 27 1 0 -4 -19 -14 -42 -21 -40 -11 -57 -24 -58
-42 0 -14 36 -14 75 0 55 19 224 19 301 -2 78 -20 177 -64 187 -82 4 -8 14
-14 22 -14 19 0 125 -90 170 -145 38 -47 99 -190 90 -212 -2 -7 1 -12 7 -10
26 5 54 -199 36 -266 -4 -16 -3 -25 3 -22 5 4 9 1 9 -4 0 -6 -4 -11 -10 -11
-5 0 -10 -6 -10 -14 0 -25 -49 -161 -60 -164 -6 -2 -8 -8 -4 -13 3 -5 1 -9 -4
-9 -6 0 -13 -7 -16 -16 -3 -9 -2 -12 4 -9 20 12 -52 -100 -76 -120 -14 -11
-45 -38 -68 -61 -47 -44 -153 -109 -226 -138 -27 -10 -81 -19 -138 -22 -52 -2
-99 -7 -103 -10 -5 -3 -15 -2 -21 3 -13 8 -25 11 -68 16 -14 2 -31 6 -37 10
-5 4 -24 8 -42 9 -17 1 -31 6 -31 11 0 4 -4 6 -10 2 -30 -19 -316 168 -304
199 2 6 -3 20 -11 31 -16 19 -16 19 -5 -2 20 -42 -5 -24 -33 24 -51 84 -88
270 -82 417 3 77 10 107 61 266 3 8 -4 -2 -16 -22 -21 -40 -34 -50 -23 -20 3
9 3 14 0 11 -4 -3 -18 -38 -31 -77 -17 -50 -21 -72 -13 -76 9 -3 8 -5 0 -5 -8
-1 -13 -15 -13 -38 0 -28 -3 -34 -12 -25 -8 8 -8 28 1 79 7 37 14 75 15 84 2
18 24 77 38 102 5 11 7 21 5 23 -2 3 -12 -10 -20 -28 -9 -18 -17 -27 -17 -20
0 30 95 187 148 245 14 15 22 27 18 27 -4 0 -24 -17 -43 -37 -20 -21 -33 -31
-29 -23 4 8 -4 2 -18 -14 -14 -17 -22 -34 -19 -39 3 -6 1 -7 -4 -4 -6 4 -20
-8 -32 -26 -11 -17 -21 -27 -21 -21 0 5 6 19 14 29 8 11 12 26 9 35 -3 10 -2
11 4 3 6 -9 12 -6 22 10 13 20 13 21 -2 8 -16 -12 -21 -9 -18 12 3 17 -10 5
-26 -25 -17 -32 -18 -38 -21 -67 -2 -11 -5 -10 -16 4 -12 17 -15 14 -40 -35
-15 -29 -24 -55 -21 -58 2 -3 1 -10 -3 -16 -5 -6 -15 -30 -22 -54 -20 -63 -30
-61 -14 3 21 79 48 137 101 218 65 98 65 97 59 97 -10 0 -95 -127 -122 -182
-19 -40 -31 -54 -37 -45 -5 7 -6 2 -2 -13 6 -25 6 -25 -11 -5 l-17 20 8 -20
c4 -11 9 -27 12 -35 3 -8 -2 -6 -11 5 -15 19 -16 19 -6 -10 9 -28 9 -29 -5
-11 -18 23 -20 9 -4 -31 5 -15 7 -24 2 -20 -4 5 -13 -7 -20 -25 -13 -31 -13
-32 -6 -3 3 17 7 44 7 60 2 44 11 68 68 183 35 68 74 126 117 175 l65 72 -58
-55 c-32 -30 -81 -89 -108 -130 -29 -43 -57 -75 -66 -75 -9 0 -18 -9 -21 -20
-2 -11 -6 -22 -10 -25 -3 -3 -11 -18 -17 -35 -6 -16 -15 -38 -19 -47 -4 -10
-3 -18 2 -18 6 0 16 18 23 40 7 22 17 40 22 40 4 0 1 -17 -6 -37 -8 -21 -17
-55 -21 -75 -8 -49 -29 -63 -22 -15 3 25 1 34 -8 31 -6 -3 -11 -17 -9 -32 2
-18 1 -20 -3 -7 -4 16 -9 10 -19 -25 -16 -53 -17 -71 -4 -50 8 11 9 9 6 -10
-3 -14 -5 -44 -5 -68 -1 -32 -4 -41 -13 -36 -8 5 -8 1 1 -10 13 -15 13 -19 0
-27 -12 -7 -12 -9 1 -9 11 0 11 -3 2 -12 -7 -7 -12 -17 -12 -22 0 -6 5 -4 11
4 7 11 9 -1 7 -43 -2 -31 0 -57 5 -57 4 0 7 -12 7 -27 0 -42 39 -171 74 -248
42 -90 117 -205 170 -261 24 -24 41 -46 39 -48 -2 -2 5 -9 14 -17 17 -13 17
-13 3 6 -8 11 4 5 28 -14 23 -18 42 -35 42 -38 0 -3 -7 0 -15 7 -8 7 -27 14
-42 15 -16 1 -53 5 -83 9 -37 4 -48 3 -35 -3 15 -7 3 -10 -45 -11 -36 -1 -69
-3 -75 -5 -5 -1 -26 -3 -45 -5 -19 -1 -27 -4 -17 -7 9 -2 17 -11 17 -19 0 -8
-3 -13 -7 -11 -5 3 -17 1 -28 -4 -20 -7 -20 -8 1 -8 11 -1 29 -7 39 -15 10 -7
26 -11 36 -9 10 3 26 0 36 -6 16 -9 16 -10 -7 -11 -37 0 -70 -11 -70 -22 0 -5
6 -6 13 -2 6 4 8 3 4 -1 -4 -5 -15 -10 -24 -11 -27 -4 -63 -26 -57 -36 3 -4 1
-8 -5 -8 -6 0 -27 -12 -48 -26 l-38 -27 42 6 c24 3 46 1 49 -4 3 -6 14 -7 25
-4 61 20 193 4 267 -32 70 -34 61 -40 -12 -8 -61 27 -131 37 -158 23 -21 -10
-24 -24 -5 -25 26 -2 129 -34 160 -50 82 -42 136 -108 176 -216 44 -120 25
-185 -140 -480 -61 -110 -116 -206 -121 -212 -18 -22 -58 -86 -58 -94 0 -33
-207 -331 -303 -435 -15 -17 -44 -56 -64 -86 -20 -30 -58 -88 -84 -128 -44
-66 -107 -189 -123 -239 -4 -14 2 -26 21 -44 16 -13 58 -50 96 -83 37 -32 65
-62 62 -66 -2 -4 5 -16 18 -26 l22 -19 -19 23 c-11 12 -15 22 -9 22 13 0 45
-35 38 -42 -3 -3 3 -11 12 -19 16 -13 17 -12 4 4 -7 9 -9 17 -3 17 12 0 34
-25 27 -32 -3 -3 5 -13 17 -24 l23 -19 -19 23 c-23 27 -10 29 22 3 24 -20 30
-37 10 -25 -7 4 -4 -2 6 -14 21 -25 36 -31 16 -7 -7 8 -10 15 -7 15 5 0 251
-185 402 -303 62 -48 74 -57 270 -208 88 -67 178 -136 200 -153 22 -17 44 -36
50 -42 5 -5 27 -23 48 -38 21 -15 34 -32 31 -38 -4 -6 -2 -8 3 -5 6 4 14 0 17
-9 3 -8 11 -12 16 -9 6 4 9 3 8 -2 -2 -4 1 -8 5 -8 5 0 13 -8 18 -18 6 -9 15
-15 20 -11 5 3 8 1 7 -4 -2 -6 16 -23 38 -39 56 -38 115 -92 137 -126 19 -29
48 -133 44 -157 -1 -8 -6 -21 -10 -27 -5 -8 -3 -13 4 -13 8 0 8 -4 1 -12 -5
-7 -8 -23 -6 -36 5 -31 -46 -129 -92 -175 -52 -52 -107 -83 -172 -96 -116 -24
-162 -7 -351 132 -116 85 -158 115 -202 142 -9 5 -50 37 -90 70 -40 33 -85 69
-100 80 -15 11 -71 54 -125 95 -55 41 -99 73 -100 70 -1 -3 -12 6 -24 20 -12
14 -19 18 -15 10 4 -10 2 -9 -8 3 -8 9 -18 17 -22 17 -4 0 -84 60 -179 133
-226 176 -278 215 -360 272 -39 27 -81 58 -94 69 -13 12 -25 19 -27 16 -1 -3
-12 6 -22 19 -13 15 -22 20 -27 13 -3 -6 -2 -13 4 -17 5 -3 10 -3 10 1 0 3 9
-4 20 -17 10 -13 19 -20 20 -16 0 4 11 -4 25 -19 14 -15 25 -24 25 -20 0 3 12
-7 28 -24 26 -29 138 -117 344 -272 57 -43 95 -78 93 -86 -3 -7 0 -10 6 -6 6
3 17 -3 25 -15 9 -12 21 -18 27 -15 7 4 9 3 4 -1 -4 -5 3 -20 15 -34 13 -14 6
-10 -15 9 -21 19 -41 34 -45 34 -4 -1 -16 5 -27 12 -11 8 -16 14 -11 14 5 0 3
7 -4 15 -7 9 -15 13 -18 10 -3 -2 -10 1 -16 8 -37 45 -448 355 -463 350 -6 -2
-15 1 -19 8 -5 8 -3 10 7 4 8 -5 5 1 -5 13 -11 12 -21 21 -23 19 -3 -4 -53 38
-119 100 -19 17 -37 27 -40 22 -6 -11 50 -67 160 -157 42 -35 76 -66 76 -68 0
-9 -340 261 -452 359 -32 28 -56 52 -54 54 2 3 30 -20 61 -49 32 -29 61 -53
65 -53 5 0 39 -25 77 -54 37 -30 62 -47 54 -37 -8 9 -10 16 -5 15 20 -4 26 2
15 15 -10 12 -9 14 6 11 10 -2 20 -4 23 -5 3 -1 9 -2 13 -1 4 1 3 -9 -4 -21
-6 -13 -8 -20 -4 -16 4 4 24 -5 43 -20 l36 -27 -22 33 c-13 17 -28 32 -33 32
-5 0 -8 4 -6 8 1 5 -11 20 -28 33 -40 33 -67 49 -38 24 22 -20 32 -42 14 -31
-5 3 -14 -1 -21 -9 -11 -13 -15 -11 -32 10 -11 14 -25 25 -31 25 -7 1 -34 20
-61 44 -42 37 -45 43 -25 41 13 -1 23 -8 21 -15 -2 -8 3 -10 13 -6 9 3 14 2
11 -3 -3 -5 2 -15 11 -22 9 -8 17 -12 19 -9 1 3 6 1 11 -4 5 -5 2 -6 -6 -1
-10 6 -12 4 -7 -4 5 -7 14 -10 22 -7 8 3 13 2 11 -2 -1 -4 3 -9 8 -10 6 -2 17
-9 25 -15 8 -6 5 0 -8 14 -12 14 -19 29 -15 34 5 4 2 5 -6 0 -7 -4 -16 -4 -20
1 -17 25 -83 74 -92 68 -5 -3 -8 0 -7 8 2 7 -3 12 -10 10 -8 -1 -11 2 -8 6 3
5 -4 18 -15 28 -50 45 -95 194 -85 279 5 49 103 258 116 250 4 -2 15 10 25 27
13 22 14 29 4 24 -10 -5 -10 -4 1 6 8 7 16 20 18 28 2 8 23 47 48 86 24 40 50
82 57 95 7 13 52 92 101 174 49 83 111 188 138 235 28 47 59 100 70 118 11 17
17 32 14 32 -2 0 -21 -27 -42 -60 -20 -33 -40 -57 -45 -55 -4 3 -11 0 -15 -6
-5 -8 -3 -9 6 -4 8 5 11 3 9 -4 -3 -7 -8 -12 -12 -11 -11 1 -41 -37 -67 -88
-12 -23 -26 -45 -31 -48 -5 -3 -9 -10 -9 -15 0 -6 4 -7 10 -4 6 3 7 -1 3 -10
-4 -12 -8 -13 -13 -5 -7 11 -20 -7 -76 -106 -13 -23 -20 -45 -16 -49 4 -5 2
-5 -5 -2 -7 4 -23 -17 -43 -56 -18 -34 -44 -78 -57 -97 -13 -19 -19 -36 -13
-38 5 -2 -3 -22 -19 -45 -15 -23 -58 -94 -95 -157 -37 -63 -72 -117 -77 -118
-5 -2 -7 -8 -3 -13 3 -5 2 -15 -3 -21 -14 -23 -17 -42 -17 -113 0 -57 6 -82
32 -138 17 -37 27 -65 22 -62 -15 9 -58 108 -66 151 -10 54 -11 108 -1 115 5
3 11 20 13 38 6 33 168 323 185 329 5 2 7 8 3 13 -3 5 0 9 7 9 7 0 10 3 6 6
-7 7 70 156 153 299 29 50 66 115 83 145 16 30 38 67 49 82 11 16 16 33 12 39
-4 7 -3 9 3 6 5 -3 17 7 27 24 9 16 13 29 7 29 -5 0 -13 -9 -16 -20 -3 -11
-11 -20 -17 -20 -5 0 -1 15 11 33 11 17 24 32 30 32 5 0 13 4 18 9 5 5 3 6 -4
2 -20 -11 -16 1 29 77 24 40 47 80 53 89 5 10 35 59 65 110 30 51 87 146 127
211 40 66 73 122 73 125 0 4 -27 -33 -60 -83 -33 -49 -65 -89 -70 -88 -5 2 -6
-5 -3 -14 4 -11 3 -14 -5 -9 -11 6 -17 -5 -13 -26 0 -5 -3 -8 -9 -8 -10 0 -45
-60 -42 -72 1 -5 -2 -8 -8 -8 -5 0 -10 -4 -10 -10 0 -5 -9 -19 -20 -30 -12
-12 -19 -24 -16 -29 3 -4 -1 -8 -9 -8 -8 0 -15 4 -15 9 0 4 5 8 11 8 5 0 7 5
4 10 -3 6 -2 10 4 10 5 0 9 8 9 18 -1 9 2 28 6 42 7 21 4 20 -18 -10 -15 -19
-24 -40 -22 -47 3 -7 -2 -10 -15 -8 -16 3 -18 -1 -15 -21 3 -14 10 -32 16 -39
8 -10 8 -15 -1 -21 -7 -4 -9 -3 -5 4 3 6 2 13 -3 17 -6 3 -17 -7 -24 -22 -10
-18 -23 -28 -41 -29 -30 -1 -31 3 -11 30 13 17 15 17 15 4 0 -9 5 -20 11 -23
6 -4 10 -1 8 6 -3 28 1 40 14 33 6 -4 9 -4 5 1 -4 4 -3 17 3 29 7 14 3 12 -14
-8 -14 -15 -26 -23 -28 -17 -2 6 -24 -21 -48 -61 -101 -167 -111 -180 -129
-166 -15 12 -16 11 -3 -5 12 -15 12 -20 1 -30 -9 -9 -11 -9 -6 0 3 6 2 14 -2
17 -5 3 -9 -7 -8 -22 0 -18 -4 -26 -13 -24 -9 2 -11 -3 -7 -13 3 -10 2 -14 -5
-10 -6 4 -9 -1 -7 -11 2 -12 -2 -18 -11 -16 -9 2 -11 -3 -7 -14 5 -13 4 -14
-7 -6 -8 7 -17 9 -20 5 -4 -3 1 -12 11 -20 9 -8 11 -11 3 -7 -11 6 -13 3 -7
-12 4 -10 4 -15 0 -11 -8 8 -34 -11 -34 -25 0 -5 5 -6 12 -2 7 5 8 3 4 -5 -5
-7 -10 -10 -13 -7 -3 3 -21 -18 -39 -47 -18 -28 -34 -49 -34 -46 0 8 63 113
80 134 6 7 10 19 8 27 -4 18 34 78 45 71 4 -3 7 1 5 8 -2 13 30 75 87 165 48
77 165 275 165 280 0 3 11 20 24 37 39 53 62 92 49 84 -13 -8 -29 -31 -158
-234 -42 -68 -79 -123 -82 -123 -2 0 -1 5 2 10 3 6 -1 10 -9 10 -18 0 -21 -11
-6 -26 7 -7 5 -17 -6 -30 -15 -18 -15 -18 -5 3 11 22 -2 43 -14 23 -3 -5 -3
-10 2 -10 4 0 3 -4 -2 -8 -21 -15 -44 -59 -35 -68 6 -6 -11 -45 -42 -99 -28
-50 -62 -109 -75 -132 -14 -25 -31 -43 -41 -43 -11 0 -13 3 -6 8 6 4 16 17 22
29 9 16 9 23 -1 26 -7 3 -5 6 6 6 18 1 23 16 8 25 -12 8 -84 -112 -75 -126 4
-6 3 -8 -4 -4 -6 4 -22 -10 -37 -31 -14 -21 -21 -39 -16 -41 5 -2 -6 -30 -26
-62 -20 -34 -40 -57 -46 -53 -6 3 -7 1 -3 -5 10 -16 -12 -54 -26 -46 -7 4 -8
3 -4 -5 9 -14 -52 -123 -64 -116 -5 3 -12 0 -16 -6 -4 -8 -3 -9 4 -5 15 9 15
1 1 -25 -5 -11 -14 -17 -19 -14 -6 3 -7 0 -4 -8 6 -17 -31 -82 -48 -82 -6 0
-13 -7 -15 -15 -4 -13 -3 -13 7 0 9 13 11 12 8 -5 -2 -11 -8 -20 -15 -20 -6 0
-15 -4 -20 -9 -5 -5 -3 -6 5 -2 15 9 16 10 -7 -49 -10 -27 -22 -76 -26 -107
-4 -32 -12 -58 -19 -58 -7 0 -7 -3 -1 -8 13 -9 17 -75 5 -67 -6 4 -10 2 -10
-4 0 -5 4 -11 9 -13 13 -5 23 -95 11 -103 -5 -3 -10 -14 -9 -23 0 -12 4 -9 11
8 9 21 12 22 15 7 3 -10 -1 -26 -9 -35 -12 -15 -11 -16 5 -3 9 7 17 12 18 10
0 -2 2 -12 4 -22 10 -52 82 -171 141 -233 35 -36 149 -136 215 -188 13 -10 44
-37 69 -60 25 -23 61 -52 79 -66 91 -67 140 -108 135 -112 -2 -3 4 -11 13 -19
16 -13 17 -12 4 4 -7 9 -9 17 -3 17 12 0 34 -25 27 -32 -3 -3 2 -11 12 -19 14
-12 15 -12 9 0 -6 9 -4 12 5 9 8 -3 14 -10 14 -16 0 -15 14 -27 33 -27 9 0 16
-5 15 -11 -1 -7 8 -20 20 -30 l22 -19 -19 23 c-27 31 -5 28 25 -5 13 -14 18
-23 12 -19 -7 4 -13 5 -13 2 0 -3 25 -17 56 -32 30 -14 53 -28 51 -31 -3 -2
-18 3 -34 13 l-28 17 30 -26 c16 -14 33 -23 37 -20 5 2 8 0 8 -5 0 -10 39 -41
295 -235 94 -71 177 -137 185 -146 21 -23 103 -86 111 -86 4 0 72 -48 151
-106 427 -316 551 -379 732 -373 187 7 366 91 484 227 17 21 32 34 33 30 0 -4
4 1 9 12 7 15 9 9 11 -27 1 -27 2 -54 3 -60 1 -7 -2 -19 -7 -26 -7 -8 -6 -17
1 -24 7 -7 12 -30 12 -53 0 -29 -3 -36 -10 -25 -6 9 -10 10 -10 3 0 -6 5 -15
10 -18 32 -20 -36 -476 -88 -595 -9 -19 -17 -38 -18 -42 -1 -5 -3 -10 -4 -13
-1 -3 -3 -8 -4 -12 -1 -5 -10 -25 -19 -47 -9 -21 -17 -45 -17 -52 0 -8 -4 -14
-10 -14 -5 0 -10 -5 -10 -11 0 -6 -7 -27 -16 -47 -45 -105 -65 -142 -74 -137
-6 4 -7 -1 -3 -11 4 -11 3 -15 -5 -10 -6 3 -14 1 -18 -5 -5 -8 -3 -9 6 -4 8 5
11 3 8 -6 -3 -8 -10 -13 -16 -12 -6 2 -9 -4 -6 -11 3 -9 -5 -22 -21 -32 -14
-9 -24 -23 -21 -30 3 -7 -4 -23 -15 -36 l-20 -23 16 30 17 30 -19 -25 c-94
-128 -141 -184 -243 -289 -50 -51 -174 -161 -182 -161 -5 0 -27 -14 -50 -30
-22 -17 -37 -30 -32 -30 16 0 -149 -102 -251 -155 -96 -50 -269 -123 -309
-131 -11 -2 -41 -11 -67 -19 -26 -9 -60 -18 -76 -21 -15 -2 -40 -7 -55 -10
-15 -3 -30 -5 -33 -5 -2 0 -18 -4 -35 -9 -83 -24 -400 -33 -563 -17 -188 19
-390 73 -587 156 -39 17 -71 30 -73 29 -1 0 -20 10 -42 23 -22 13 -46 23 -52
21 -7 -2 -13 2 -13 8 0 5 -7 10 -15 10 -8 0 -23 8 -33 17 -33 32 -89 69 -72
48 15 -18 14 -18 -12 -1 -16 10 -28 22 -28 27 0 5 -4 8 -9 7 -30 -9 -380 299
-366 322 3 4 -3 14 -13 21 -16 13 -16 12 -2 -6 15 -20 14 -20 -8 -1 -23 20
-31 42 -9 30 6 -4 1 5 -12 19 -30 33 -42 36 -15 5 l19 -23 -23 19 c-12 11 -20
26 -18 33 3 7 -8 23 -24 35 -16 12 -42 40 -57 62 -18 28 -20 36 -8 26 12 -10
9 0 -10 27 -15 24 -30 43 -32 43 -3 0 2 -12 12 -26 9 -15 12 -23 6 -20 -18 12
-42 66 -35 79 4 7 4 9 -1 5 -9 -9 -48 44 -59 80 -4 12 -12 20 -17 17 -5 -3 -6
1 -3 9 4 9 -1 18 -10 22 -9 3 -14 10 -11 14 8 12 -6 41 -16 34 -5 -3 -9 -1 -9
5 0 5 -5 22 -12 38 -6 15 -10 34 -9 42 1 7 -2 10 -8 6 -7 -3 -8 0 -5 9 3 9 2
16 -2 16 -5 0 -10 12 -11 27 -1 26 -43 163 -53 173 -5 5 -6 10 -8 56 -1 14 -5
23 -9 21 -5 -3 -9 23 -10 56 -1 34 -6 63 -11 65 -6 2 -8 12 -5 22 3 12 0 20
-7 20 -9 0 -9 4 1 17 10 12 11 15 1 9 -10 -6 -11 -1 -6 20 6 21 4 25 -7 19
-11 -7 -12 -6 -3 6 5 8 10 21 9 29 -1 8 -3 40 -4 70 -1 40 -4 51 -11 40 -8
-12 -10 -11 -7 5 1 11 6 26 10 33 5 7 3 12 -5 12 -9 0 -9 3 2 10 10 6 11 10 3
10 -7 0 -13 8 -13 18 0 14 2 15 10 2 7 -10 10 7 10 57 0 39 3 80 6 90 5 15 4
15 -5 3 -6 -8 -11 -10 -11 -4 0 5 5 15 11 21 6 6 10 29 7 51 -2 22 0 38 3 36
4 -2 9 12 11 30 2 19 1 33 -2 31 -4 -2 -7 2 -7 10 0 8 5 11 10 8 6 -4 8 0 4
10 -3 9 -1 18 6 21 9 3 9 5 0 5 -7 1 -13 6 -13 12 0 5 5 7 11 4 6 -4 9 -1 8 6
-1 8 1 22 6 32 4 9 5 26 2 37 -3 11 -2 18 3 15 4 -3 14 19 21 48 6 28 26 88
42 132 16 44 30 90 31 102 1 11 4 19 7 17 4 -2 18 23 32 54 15 32 36 67 47 77
11 10 20 22 20 26 0 11 139 231 165 261 69 81 145 187 145 203 0 4 -5 3 -12
-1 -13 -8 31 54 71 101 14 16 19 24 10 17 -20 -15 -31 -5 -19 18 8 15 5 17
-22 15 -18 -1 -39 -12 -49 -24 -10 -12 -20 -17 -23 -12 -4 5 -2 12 4 16 6 3
17 21 26 38 l17 32 -24 -20 c-14 -12 -11 -5 9 18 18 22 31 44 29 50 -2 7 11
31 30 55 34 41 27 56 -11 27 -13 -10 -22 -11 -26 -5 -6 10 -128 -85 -185 -146
-47 -50 -130 -146 -133 -155 -2 -5 -8 -9 -14 -9 -12 0 45 74 113 145 40 43 79
101 79 120 0 8 -50 -24 -84 -54 -16 -14 -25 -20 -21 -12 6 10 4 12 -4 7 -7 -5
-10 -15 -7 -23 3 -8 1 -11 -4 -8 -5 3 -21 -2 -35 -11 -18 -12 -22 -20 -15 -29
10 -12 4 -25 -12 -25 -5 0 -6 5 -2 12 4 7 3 8 -5 4 -6 -4 -8 -12 -5 -18 4 -6
-8 -24 -27 -40 -19 -16 -27 -26 -19 -23 8 4 1 -6 -16 -22 -17 -16 -54 -63 -81
-104 -105 -156 -150 -218 -157 -212 -5 5 -10 -9 -8 -27 0 -3 -8 -7 -19 -7 -19
-2 -19 0 5 24 14 14 23 29 21 34 -3 4 4 13 15 19 11 6 18 15 15 19 -3 5 2 12
11 15 8 3 12 11 8 17 -4 7 -3 10 2 6 11 -7 169 228 169 251 0 10 6 17 14 17 8
0 16 5 18 12 5 15 -20 11 -43 -7 -20 -18 -7 3 120 190 48 72 93 133 100 137 6
4 -1 -9 -15 -28 -14 -18 -39 -59 -56 -90 -25 -44 -29 -59 -20 -70 10 -11 9
-11 -5 0 -12 9 -18 10 -18 2 0 -6 0 -13 0 -16 -1 -2 -19 -23 -40 -47 -43 -46
-49 -57 -24 -54 19 3 75 86 67 99 -3 6 -1 7 6 3 6 -4 9 -11 6 -16 -3 -5 0 -12
6 -16 8 -5 9 -3 4 6 -5 8 -4 11 3 6 6 -3 14 -1 18 5 4 8 3 9 -4 5 -8 -5 -11 0
-9 15 2 13 10 25 17 27 9 3 11 -1 7 -12 -12 -30 0 -16 49 56 27 40 70 96 95
124 53 58 144 181 200 267 21 33 47 66 56 74 11 9 12 12 3 8 -8 -4 -4 3 10 15
14 12 19 18 11 14 -8 -4 5 19 29 52 23 32 65 94 93 137 27 42 54 77 59 77 5 0
7 4 3 9 -3 5 0 13 6 16 5 4 8 14 5 22 -3 8 -2 12 3 9 5 -3 27 24 50 62 38 61
33 62 -12 1 -11 -15 -16 -18 -13 -6 8 26 2 21 -33 -28 -18 -25 -29 -50 -26
-55 4 -6 2 -9 -3 -8 -14 5 -64 -60 -56 -73 5 -8 3 -9 -6 -4 -10 6 -12 4 -7 -9
4 -10 3 -15 -3 -11 -10 6 -82 -101 -84 -125 -1 -12 -88 -137 -142 -203 -8 -9
-14 -22 -14 -28 0 -5 -5 -7 -10 -4 -10 6 108 188 138 213 9 6 13 12 10 12 -12
0 108 203 185 315 12 16 20 38 20 48 -2 20 66 131 75 123 2 -3 -12 -30 -33
-61 -20 -31 -35 -59 -32 -62 3 -2 13 10 22 29 10 18 24 41 33 50 8 10 16 29
17 42 4 30 0 23 93 166 90 138 94 145 62 106 -14 -17 -42 -48 -62 -69 -20 -21
-40 -47 -43 -58 -4 -10 -11 -19 -17 -19 -6 0 -9 -3 -6 -6 3 -3 -5 -16 -19 -30
-25 -25 -43 -33 -24 -11 6 8 7 18 3 22 -4 5 -2 5 4 2 7 -4 11 7 12 31 l1 37
-20 -32 c-12 -18 -25 -30 -31 -27 -6 4 -5 -2 1 -14 9 -17 7 -26 -14 -49 -14
-15 -25 -23 -24 -18 3 22 -2 27 -16 15 -18 -15 -20 1 -3 18 9 9 15 7 25 -6 14
-16 14 -16 9 1 -4 12 -2 16 6 11 7 -5 8 -3 3 6 -6 9 -4 11 5 5 9 -5 11 -4 6 4
-6 9 -11 9 -22 0 -11 -9 -14 -8 -14 2 0 18 -27 -13 -74 -84 -38 -56 -65 -85
-54 -55 4 8 1 15 -7 15 -8 0 -11 -7 -7 -15 3 -10 1 -13 -6 -8 -6 3 -13 2 -17
-3 -3 -6 3 -8 14 -6 14 3 18 -1 14 -12 -5 -12 -7 -12 -14 -1 -7 10 -9 10 -10
-2 -1 -8 -1 -19 0 -23 1 -5 -3 -5 -9 -2 -7 4 -10 0 -8 -11 2 -12 -2 -18 -11
-16 -8 2 -11 -3 -8 -12 4 -9 1 -15 -6 -13 -7 1 -11 -6 -10 -16 0 -10 -2 -16
-5 -13 -3 3 -12 0 -21 -7 -14 -10 -14 -10 -3 5 8 9 10 23 6 29 -4 7 -3 9 4 5
12 -7 35 27 25 37 -9 10 18 38 30 30 6 -4 8 0 4 9 -3 10 12 40 40 78 25 35 69
99 99 144 29 44 67 101 85 126 29 43 18 32 -39 -37 -15 -18 -51 -66 -80 -107
-33 -46 -62 -76 -77 -80 -13 -3 -30 -16 -36 -29 -7 -12 -26 -39 -42 -59 -16
-20 -27 -42 -25 -49 2 -7 14 3 26 22 12 20 31 44 43 55 21 18 -58 -112 -89
-149 -17 -20 -31 -14 -14 6 8 10 6 13 -8 14 -22 2 -53 -35 -43 -50 3 -6 1 -7
-4 -4 -6 4 -22 -8 -35 -26 -41 -54 -43 -64 -4 -22 l37 40 -31 -45 c-17 -25
-35 -45 -40 -45 -5 0 -12 -4 -17 -9 -5 -5 -3 -6 5 -2 6 4 12 3 12 -2 0 -15
-26 -33 -35 -24 -5 4 -5 1 -1 -6 9 -15 -21 -65 -33 -57 -5 2 -17 -7 -26 -21
-9 -15 -12 -23 -5 -19 8 5 11 3 8 -6 -3 -8 -11 -14 -19 -14 -8 0 -13 -8 -11
-17 1 -9 -3 -20 -9 -24 -8 -5 -9 -3 -4 7 8 12 6 12 -8 0 -19 -15 -23 -26 -6
-15 7 4 10 1 7 -7 -3 -8 -10 -13 -16 -12 -5 1 -9 -5 -8 -15 0 -9 -5 -17 -13
-17 -7 0 -20 -11 -29 -25 l-14 -25 21 25 c11 14 21 21 20 15 0 -14 -28 -50
-39 -51 -6 -1 -14 -2 -19 -3 -5 0 -19 -18 -30 -38 -20 -36 -20 -36 -1 -13 38
47 42 51 46 47 7 -7 -50 -88 -85 -121 -17 -16 -28 -33 -25 -38 6 -9 -121 -192
-155 -222 -11 -11 -21 -24 -21 -31 0 -6 -11 -22 -25 -35 -13 -12 -22 -27 -19
-32 3 -5 0 -7 -6 -6 -13 3 -117 -138 -109 -147 3 -3 25 24 49 60 25 35 46 63
48 61 7 -7 -90 -135 -101 -133 -6 1 -26 -20 -45 -48 -22 -32 -41 -50 -53 -49
-10 1 -16 -3 -13 -7 3 -5 10 -7 15 -4 14 9 11 -3 -7 -30 -9 -14 -21 -22 -27
-18 -6 4 -8 0 -4 -11 4 -10 3 -15 -3 -11 -6 3 -10 1 -10 -6 0 -9 -3 -10 -11
-2 -8 8 -4 23 13 54 39 72 136 218 202 302 33 44 76 100 94 124 18 24 65 75
105 113 39 38 69 71 66 74 -6 7 -151 -141 -214 -218 -22 -27 -45 -54 -50 -60
-6 -6 -30 -37 -54 -68 -24 -32 -47 -55 -52 -52 -13 7 -11 14 2 11 6 -1 14 5
16 13 4 12 3 12 -5 2 -5 -8 -13 -14 -18 -15 -5 -1 -8 -5 -7 -9 2 -5 -1 -8 -6
-8 -10 0 -64 -80 -54 -80 5 0 4 -4 -2 -8 -13 -9 -46 -57 -75 -109 -13 -24 -28
-43 -33 -43 -29 0 -181 140 -235 217 -44 63 -84 149 -85 183 -1 36 114 283
194 415 19 33 46 80 60 105 13 25 30 51 37 58 6 7 12 20 12 28 0 8 5 14 11 14
5 0 8 4 5 8 -3 5 6 20 19 34 13 14 21 29 17 33 -4 4 2 13 12 21 11 8 17 14 13
14 -9 0 40 81 112 185 35 50 68 89 74 87 7 -2 9 0 5 4 -4 4 0 13 10 21 11 9
12 12 2 8 -8 -4 -4 3 10 16 14 13 19 20 10 15 -8 -5 1 6 21 25 47 44 88 101
82 116 -2 6 1 15 8 19 8 5 10 3 4 -7 -5 -8 -4 -10 0 -6 5 4 10 14 11 22 1 8
19 36 41 62 21 26 31 43 23 38 -18 -10 6 18 75 89 71 73 140 158 138 168 -2 4
3 7 10 5 6 -1 11 5 9 13 -2 8 -1 12 3 8 4 -4 38 13 76 38 38 24 73 44 77 44
21 0 121 48 114 55 -4 5 -2 5 4 2 5 -3 29 -1 53 5 31 8 39 13 29 20 -8 6 -2 7
20 3 18 -4 32 -2 32 3 0 5 12 7 26 4 17 -3 25 -1 21 5 -4 6 4 8 20 5 20 -4 24
-2 18 9 -6 10 -5 11 4 4 14 -14 83 -7 74 8 -3 5 -2 7 4 4 5 -3 44 -7 86 -8 48
-1 77 -6 77 -13 0 -6 5 -4 10 4 5 8 10 10 10 4 0 -12 106 -30 148 -26 12 2 22
-2 22 -9 0 -6 9 -9 20 -6 11 3 20 1 20 -5 0 -6 7 -8 15 -5 11 5 13 0 8 -23 -5
-29 9 -42 22 -20 3 6 1 10 -5 10 -8 0 -9 7 -5 18 4 9 8 22 9 29 4 24 17 27 23
5 3 -12 9 -19 13 -17 8 5 11 -16 11 -92 0 -39 4 -40 31 -10 11 12 17 15 13 7
-4 -8 5 -2 18 14 42 49 53 156 23 214 -8 16 -34 48 -57 71 -23 23 -38 41 -32
41 16 0 81 -68 99 -102 9 -17 18 -45 21 -62 5 -33 31 -88 33 -71 1 6 4 19 6
30 23 91 -48 206 -161 259 -97 47 -169 59 -335 59 -102 0 -188 -6 -252 -17
-325 -58 -642 -220 -770 -393 -23 -32 -59 -76 -79 -98 -20 -22 -49 -55 -64
-73 -15 -17 -30 -30 -35 -27 -4 3 -14 -3 -21 -12 -12 -14 -12 -16 0 -9 9 6 12
4 9 -5 -3 -8 -10 -14 -18 -14 -7 0 -24 -16 -38 -35 l-25 -35 31 35 c52 58 35
20 -22 -51 -44 -55 -241 -330 -270 -378 -7 -10 -5 -12 5 -7 8 4 4 -1 -8 -11
-11 -10 -53 -68 -91 -130 -39 -61 -80 -121 -91 -132 -12 -12 -21 -28 -21 -36
0 -8 -4 -15 -10 -15 -5 0 -10 -6 -10 -13 0 -12 -15 -42 -67 -137 -48 -86 -77
-135 -103 -175 -31 -47 -45 -79 -29 -69 6 3 2 -11 -9 -32 -98 -193 -100 -298
-6 -487 19 -37 53 -95 76 -129 24 -33 48 -69 54 -79 19 -32 97 -113 144 -149
25 -19 57 -46 72 -59 16 -14 28 -21 28 -15 0 5 4 4 8 -1 4 -6 21 -21 37 -34
17 -13 23 -22 14 -18 -13 4 -22 -7 -38 -50 -26 -67 -26 -82 0 -28 10 22 19 37
19 34 0 -18 -69 -214 -75 -211 -4 2 -10 0 -13 -4 -4 -4 -1 -4 7 1 11 6 13 3 8
-16 -3 -13 -11 -50 -18 -81 -7 -33 -16 -55 -22 -51 -6 3 -7 2 -4 -4 4 -6 2
-37 -3 -69 -5 -32 -12 -78 -15 -100 -3 -23 -8 -59 -11 -80 -4 -22 -6 -47 -6
-56 1 -11 -5 -15 -16 -12 -14 5 -15 4 -2 -4 11 -8 14 -24 11 -64 -3 -38 -6
-48 -11 -33 -5 11 -6 -12 -3 -51 8 -119 8 -202 1 -198 -8 5 -5 -17 5 -33 4 -6
2 -13 -5 -15 -6 -2 -12 -18 -13 -36 -1 -17 2 -29 6 -26 4 2 6 16 4 30 -1 14 1
22 6 17 4 -4 10 -42 13 -83 15 -216 54 -411 128 -637 17 -54 33 -104 34 -112
5 -28 49 -130 101 -234 29 -60 51 -112 48 -117 -3 -5 0 -12 6 -16 8 -4 9 -3 5
4 -4 7 -2 12 5 12 6 0 9 -8 6 -20 -3 -11 -1 -18 3 -15 5 3 14 -5 21 -17 12
-22 11 -22 -6 -8 -17 14 -17 14 -5 -7 8 -12 17 -20 21 -17 5 2 13 -4 18 -15
14 -26 14 -34 -1 -25 -6 4 -4 -4 5 -17 10 -13 23 -24 29 -24 6 0 13 -6 16 -14
3 -9 0 -11 -8 -6 -9 5 -11 4 -6 -4 4 -6 11 -9 16 -6 4 3 15 -6 24 -20 19 -29
20 -39 4 -29 -8 4 -10 3 -5 -2 5 -5 14 -9 19 -9 6 0 13 -6 16 -14 3 -9 0 -11
-9 -6 -8 4 4 -8 25 -27 22 -19 37 -39 33 -45 -13 -21 254 -310 408 -441 69
-58 64 -55 146 -114 41 -29 79 -58 84 -64 17 -18 97 -70 150 -96 28 -13 104
-51 170 -85 178 -90 358 -157 541 -203 46 -12 89 -18 95 -14 7 4 9 3 6 -3 -4
-7 15 -14 51 -19 31 -4 59 -8 62 -9 3 0 27 -4 53 -9 27 -4 57 -9 68 -11 133
-26 530 -25 729 1 340 44 706 167 1003 336 67 38 127 75 132 82 6 7 28 22 51
34 22 11 55 35 74 54 19 18 30 26 25 18 -6 -9 1 -4 15 10 40 41 75 67 66 50
-4 -8 17 10 46 40 29 30 49 48 43 39 -11 -17 4 -2 186 194 120 128 211 240
274 334 15 24 31 41 35 38 4 -3 7 3 6 13 0 9 4 16 11 15 7 -2 10 3 7 10 -2 7
3 21 11 32 15 19 16 19 5 -5 -10 -23 -10 -24 4 -6 9 10 13 23 10 27 -5 9 23
69 32 69 2 0 0 -9 -6 -20 -18 -34 -3 -22 19 16 25 41 27 56 6 28 -14 -17 -14
-15 0 14 8 17 18 32 21 32 3 0 2 -4 -1 -10 -3 -5 -4 -10 -1 -10 3 0 10 10 17
21 8 15 8 19 0 15 -8 -5 -8 0 0 18 7 14 15 23 19 21 4 -2 12 8 19 23 11 25 10
26 -4 8 -8 -11 -15 -16 -15 -10 1 13 30 50 30 38 1 -9 40 65 40 75 0 3 -7 -4
-15 -15 -8 -11 -5 4 8 38 13 34 28 58 37 59 9 0 11 2 3 5 -7 3 -9 12 -6 20 3
7 10 11 16 7 6 -4 8 0 4 10 -3 9 10 64 29 122 19 58 32 110 29 115 -8 13 4 52
14 46 4 -3 8 7 8 22 -1 57 3 83 12 77 6 -3 8 6 5 20 -2 14 0 25 7 25 6 0 9 6
6 13 -2 6 0 20 5 31 7 13 7 16 -2 11 -7 -5 -6 3 3 21 18 36 25 70 32 158 3 38
8 72 11 77 3 5 0 9 -7 9 -8 0 -8 4 -1 12 11 15 16 139 13 341 -1 60 -4 76 -13
71 -10 -6 -10 -5 -1 8 7 8 11 18 8 21 -3 4 -2 5 2 2 4 -3 8 -11 9 -18 1 -7 7
-31 13 -55 7 -23 9 -48 5 -54 -4 -6 -3 -8 3 -5 14 9 26 -38 18 -66 -5 -18 -4
-19 5 -7 9 12 11 10 7 -12 -2 -15 -1 -26 3 -23 3 2 13 -18 21 -46 9 -27 12
-49 7 -49 -4 0 -8 -5 -8 -11 0 -5 4 -8 9 -4 5 3 12 -3 15 -12 3 -10 14 -49 25
-88 11 -38 40 -140 65 -226 25 -86 47 -167 50 -180 3 -13 13 -51 22 -84 10
-33 17 -73 17 -88 0 -16 3 -24 7 -17 4 6 15 -16 25 -49 9 -32 14 -65 10 -71
-5 -9 -4 -11 4 -6 8 6 10 1 6 -16 -3 -13 -1 -37 6 -53 7 -17 13 -36 15 -44 1
-7 21 -75 45 -150 42 -138 68 -201 98 -235 13 -16 13 -18 1 -11 -34 18 49 -60
100 -95 129 -88 233 -121 359 -115 215 10 408 154 487 362 47 124 41 204 -40
508 -14 50 -32 119 -41 155 -17 63 -40 139 -52 170 -11 29 -24 87 -24 113 0
10 -5 15 -11 11 -7 -5 -9 -2 -5 8 3 9 2 19 -3 24 -8 10 -42 107 -47 138 -2 11
-17 66 -34 123 -16 57 -27 108 -24 113 3 6 1 10 -5 10 -6 0 -9 8 -6 18 3 9 2
31 -3 47 -7 22 -10 25 -11 10 -2 -17 -3 -16 -10 5 -11 34 -11 60 0 35 10 -23
13 -5 4 19 -3 9 -11 13 -16 10 -6 -4 -7 2 -3 16 5 17 4 21 -6 15 -9 -6 -11 -2
-7 13 4 12 3 20 -2 17 -4 -3 -11 11 -14 30 -4 20 -11 33 -16 30 -4 -3 -6 4 -3
15 3 12 -2 28 -10 38 -9 10 -17 32 -19 50 -1 18 -5 32 -9 32 -3 0 -6 13 -7 29
-1 40 -42 172 -52 166 -4 -3 -6 4 -3 14 6 23 -66 243 -77 236 -5 -3 -6 4 -3
15 3 11 0 20 -6 20 -5 0 -8 6 -5 13 8 21 -34 110 -47 101 -8 -4 -9 -3 -5 5 9
15 -41 84 -55 75 -5 -3 -8 0 -7 8 2 7 -3 12 -10 10 -8 -1 -11 2 -8 7 3 5 -5
16 -19 25 -29 19 -39 20 -29 4 4 -8 3 -10 -2 -5 -5 5 -9 13 -9 18 0 5 -4 9
-10 10 -5 0 -16 6 -24 12 -12 9 -13 9 -8 0 6 -9 1 -10 -23 -2 -16 6 -28 15
-25 19 7 11 -69 23 -97 15 -16 -4 -19 -3 -9 3 10 7 2 11 -28 14 -22 2 -43 -1
-45 -7 -2 -5 -5 -4 -5 4 -1 11 -4 11 -18 0 -9 -8 -14 -9 -10 -2 5 8 -13 12
-64 15 -39 2 -73 0 -76 -4 -2 -5 -12 -8 -21 -7 -14 0 -13 2 3 9 18 8 16 9 -10
11 -16 1 -38 3 -47 2 -10 0 -18 3 -18 6 0 3 -19 7 -43 7 -152 5 -255 5 -272 1
-11 -3 -27 -6 -35 -7 -10 -1 -9 -4 5 -9 15 -6 6 -10 -36 -15 -50 -6 -56 -10
-52 -27 8 -29 -4 -23 -22 11 -9 17 -19 28 -24 26 -4 -3 -7 5 -7 17 1 13 -4 21
-12 19 -8 -1 -11 1 -9 5 9 15 -12 55 -24 47 -8 -4 -9 -3 -5 4 9 15 -24 73 -37
65 -6 -3 -7 -1 -4 4 6 9 -67 132 -103 176 -44 53 -51 60 -44 47 4 -8 -5 -4
-19 9 -15 14 -27 27 -27 29 0 3 9 -3 20 -13 11 -10 20 -14 20 -8 0 12 -39 49
-49 46 -3 -1 -43 39 -89 90 -111 122 -196 203 -317 299 -105 84 -127 104 -85
75 14 -10 31 -20 38 -24 8 -3 24 -15 36 -27 12 -12 63 -56 113 -98 49 -42 127
-118 173 -167 46 -50 88 -87 93 -84 6 3 7 1 3 -5 -3 -6 5 -23 19 -39 l26 -28
-7 25 c-16 59 -256 304 -444 452 -61 48 -171 107 -206 112 -16 1 -63 20 -104
41 -63 32 -72 34 -55 15 l20 -23 -20 5 c-11 3 -29 9 -40 13 -11 4 -16 3 -10
-2 6 -4 19 -19 30 -32 l20 -24 -45 25 c-79 45 -168 63 -114 24 13 -10 21 -11
25 -4 5 7 39 -7 93 -37 93 -52 115 -77 40 -45 -54 24 -66 25 -40 5 29 -22 9
-18 -29 5 -18 11 -48 20 -66 19 -34 -1 -65 4 -108 17 -36 11 52 -75 114 -111
100 -58 301 -194 340 -230 l40 -37 -45 32 c-121 87 -238 158 -267 162 -18 3
-33 3 -33 1 0 -10 55 -54 139 -111 371 -251 658 -578 841 -957 62 -129 127
-282 134 -316 7 -33 19 -78 36 -129 59 -177 79 -356 75 -680 -2 -229 -5 -278
-20 -330 -2 -8 -7 -31 -10 -50 -20 -115 -107 -409 -150 -505 -66 -147 -91
-196 -143 -285 -48 -83 -175 -276 -191 -290 -24 -21 -121 -140 -114 -140 4 0
2 -4 -5 -9 -8 -4 -55 -48 -105 -97 -131 -127 -336 -290 -337 -267 0 4 -7 -1
-15 -11 -8 -11 -15 -16 -15 -11 0 4 -8 2 -17 -6 -10 -8 -35 -24 -55 -34 -20
-10 -35 -22 -33 -26 8 -13 -299 -157 -421 -198 -66 -23 -129 -41 -141 -41 -11
0 -23 -3 -26 -6 -6 -6 -28 -10 -84 -16 -7 -1 -13 -6 -13 -11 0 -5 -12 -6 -27
-3 -17 4 -23 3 -15 -2 14 -9 -139 -39 -260 -50 -97 -9 -457 -9 -533 0 -195 24
-293 50 -610 161 -101 36 -260 111 -271 128 -3 5 -10 7 -15 4 -5 -4 -9 -1 -9
5 0 7 -7 9 -17 6 -10 -4 -14 -4 -10 0 8 8 -75 64 -93 64 -5 0 -10 4 -10 8 0
13 -76 52 -85 44 -5 -4 -5 -2 -2 4 4 7 -12 24 -35 40 -48 33 -67 47 -113 86
-18 16 -37 28 -43 28 -6 0 -62 51 -125 113 -118 116 -235 257 -322 387 -27 41
-55 80 -62 85 -6 6 -26 38 -43 72 -17 34 -35 65 -40 68 -6 4 -10 15 -10 25 0
23 -16 35 -26 19 -4 -7 -3 -9 2 -6 6 3 16 -14 23 -39 7 -24 17 -44 22 -44 5 0
9 -5 9 -11 0 -29 114 -221 163 -274 11 -11 36 -45 58 -76 21 -31 86 -107 145
-168 59 -61 98 -108 88 -104 -17 6 -18 5 -4 -13 14 -19 14 -19 -8 0 -23 20
-30 32 -12 21 6 -3 10 -2 10 4 0 5 -10 11 -22 13 -13 2 -23 8 -23 14 0 16 -31
44 -40 36 -5 -4 -5 -2 -2 4 6 11 -27 45 -37 38 -3 -2 -4 -1 -2 2 4 5 -134 187
-155 204 -10 9 -115 165 -139 208 -13 23 -28 38 -33 35 -6 -3 -7 -1 -3 5 8 13
-28 75 -38 65 -4 -4 -4 1 0 11 5 13 0 24 -17 38 -13 11 -19 17 -12 14 7 -4 -6
34 -28 85 -39 86 -40 92 -24 108 17 15 17 15 12 -1 -4 -10 -2 -18 3 -18 5 0 9
11 8 25 -2 26 -28 36 -28 11 0 -8 -5 -18 -11 -22 -8 -4 -9 1 -4 17 5 18 4 20
-4 9 -18 -26 -20 -6 -2 29 14 27 19 30 24 17 4 -10 3 -15 -3 -11 -6 3 -10 -1
-10 -9 0 -10 6 -13 15 -10 8 4 15 7 15 8 0 0 -9 24 -20 51 -18 44 -20 46 -15
15 2 -19 2 -29 -1 -22 -4 9 -9 10 -19 2 -10 -9 -16 -7 -24 8 -8 15 -7 23 4 32
12 10 15 9 15 -5 0 -10 3 -16 6 -12 3 3 3 15 -1 27 -6 20 -7 21 -20 3 -13 -17
-14 -16 -24 8 -14 39 -41 139 -45 171 -1 10 -5 21 -9 24 -10 11 -8 24 3 24 6
0 9 -6 8 -12 -2 -7 3 -12 10 -10 6 1 12 -2 12 -8 0 -5 -4 -10 -9 -10 -5 0 -7
-9 -4 -21 4 -16 8 -18 14 -7 6 8 6 0 3 -19 -4 -20 -2 -33 4 -33 5 0 8 -10 5
-22 -4 -19 -3 -20 6 -8 9 12 10 9 5 -15 -4 -24 -3 -27 6 -15 9 12 10 9 6 -15
-5 -24 -4 -26 4 -13 12 20 -6 98 -22 98 -5 0 -6 5 -3 10 11 19 -15 108 -33
113 -16 4 -16 5 -1 6 14 1 15 7 8 38 -31 140 -33 664 -4 858 2 11 4 36 5 55 2
32 3 33 9 10 7 -23 8 -22 12 12 3 20 1 34 -3 32 -4 -3 -8 0 -8 5 0 6 5 11 11
11 6 0 9 6 6 14 -7 19 25 144 75 291 51 152 49 149 97 164 43 12 80 44 118
100 32 46 29 32 -8 -40 -94 -186 -185 -492 -204 -683 -4 -38 -11 -82 -16 -98
-11 -39 -3 -489 9 -558 6 -30 13 -75 16 -100 6 -59 35 -182 46 -195 4 -5 11
-26 15 -45 12 -57 75 -239 106 -309 16 -36 27 -71 24 -79 -2 -7 -1 -10 5 -7 5
3 16 -8 25 -24 17 -35 19 -45 5 -36 -6 3 -7 -1 -3 -10 4 -11 8 -13 13 -5 7 11
40 -29 40 -49 0 -15 144 -225 210 -306 85 -104 268 -285 287 -285 9 0 13 -3
10 -6 -14 -15 217 -181 373 -269 47 -26 95 -56 106 -67 12 -10 31 -20 43 -21
11 -1 21 -4 21 -8 0 -6 29 -19 60 -25 8 -1 67 -21 130 -43 108 -38 339 -101
381 -104 11 -1 19 -4 19 -7 0 -8 56 -14 113 -13 31 1 45 -2 41 -9 -5 -7 -1 -8
10 -1 9 5 40 6 69 3 98 -10 368 -2 454 14 10 2 41 7 68 10 135 19 435 100 566
155 41 17 106 49 144 72 39 23 75 42 82 43 7 1 20 10 31 19 10 9 22 14 25 10
4 -3 7 -1 7 5 0 7 7 12 15 12 9 0 18 7 21 15 4 8 9 13 13 11 11 -7 131 80 123
89 -4 5 -2 5 4 2 12 -7 134 91 204 164 268 280 407 476 505 714 4 11 7 23 7
28 -1 4 2 7 7 7 5 0 11 7 14 14 13 33 -21 3 -36 -32 -9 -20 -30 -59 -47 -87
-16 -27 -33 -56 -36 -63 -28 -58 -113 -184 -179 -267 -107 -135 -133 -162
-158 -169 -20 -5 -20 -4 -5 8 10 7 14 16 10 20 -4 4 -2 6 3 4 6 -1 10 0 10 3
0 13 28 38 36 33 5 -3 9 2 9 10 0 9 5 16 11 16 5 0 7 5 3 12 -4 6 -3 9 2 6 5
-3 37 29 70 71 103 126 244 373 248 431 1 16 11 38 22 49 11 10 28 40 39 67
10 27 22 55 28 62 6 8 6 12 -2 12 -8 0 -7 6 3 16 9 8 20 12 26 9 15 -9 12 2
-6 20 -9 9 -13 19 -9 23 3 4 11 -1 17 -11 9 -18 10 -18 24 0 22 29 16 4 -7
-28 -16 -23 -17 -29 -6 -29 8 0 20 14 26 31 14 40 14 49 0 49 -22 0 -41 29
-30 47 9 16 11 16 19 -6 8 -21 10 -17 26 38 9 33 15 65 11 70 -3 5 -1 12 4 15
9 6 22 60 36 146 3 19 10 51 15 70 4 19 11 57 15 83 3 27 9 59 11 70 3 12 5
90 6 172 0 155 -5 218 -28 355 -4 25 -8 47 -9 50 0 3 -4 11 -9 19 -6 10 -5 12
2 7 16 -10 15 7 0 23 -11 11 -10 12 2 6 12 -7 13 -6 3 7 -7 8 -10 18 -6 21 3
4 1 7 -5 7 -7 0 -12 9 -12 19 0 23 -65 242 -85 286 -8 17 -28 64 -45 105 -55
133 -208 396 -242 416 -7 4 -6 -1 3 -12 18 -20 59 -91 59 -100 0 -3 -5 -2 -12
2 -7 4 -8 3 -4 -5 4 -6 11 -9 16 -6 5 3 14 -3 19 -14 13 -24 14 -34 2 -26 -5
3 -3 -8 5 -25 9 -17 20 -27 26 -24 6 4 8 3 5 -2 -8 -14 24 -75 36 -67 6 3 7 1
3 -6 -4 -7 2 -32 13 -56 12 -25 21 -50 21 -57 0 -9 4 -8 11 2 9 13 10 12 5 -2
-6 -22 37 -131 49 -121 4 5 5 3 2 -3 -4 -7 4 -41 17 -75 50 -135 34 -127 -22
11 -65 159 -106 246 -172 360 -53 93 -131 203 -138 196 -7 -7 -32 14 -32 26 0
6 8 4 18 -3 16 -13 16 -12 2 6 -29 40 -53 64 -60 60 -4 -3 -32 23 -61 57 -104
120 -293 295 -344 319 -11 5 -7 -1 9 -13 64 -51 135 -121 133 -131 -1 -7 4
-11 11 -9 7 1 18 -9 24 -23 6 -14 15 -25 21 -25 5 0 7 -6 4 -14 -3 -8 1 -13
10 -12 9 0 18 -5 21 -13 3 -9 0 -11 -8 -6 -8 5 -11 4 -6 -3 4 -6 14 -8 22 -5
13 5 15 1 10 -18 -6 -21 -6 -22 4 -6 11 17 13 16 29 -15 9 -18 22 -32 30 -30
7 1 10 -2 6 -7 -3 -6 9 -28 27 -49 18 -21 5 -9 -29 27 -34 36 -63 62 -63 57 0
-5 -9 -1 -20 9 -34 31 -22 -1 18 -45 20 -23 37 -47 37 -54 1 -19 37 -66 46
-60 13 8 11 24 -3 21 -7 -1 -12 4 -10 11 1 8 -2 11 -9 6 -8 -5 -9 -3 -4 6 5 9
4 11 -3 6 -8 -5 -10 -2 -6 8 5 12 12 8 32 -17 14 -18 32 -40 40 -49 13 -16 12
-17 -7 -13 -11 2 -21 -1 -21 -6 0 -6 -5 -7 -12 -3 -8 5 -9 2 -4 -11 6 -18 6
-18 -11 -3 -10 9 -21 17 -26 17 -12 1 -35 21 -141 129 -56 56 -105 102 -110
102 -5 0 2 -9 15 -19 13 -10 32 -33 42 -50 17 -30 15 -29 -50 19 -66 49 -183
140 -193 150 -3 3 -49 38 -102 79 -54 40 -98 76 -98 79 0 2 8 -2 18 -9 15 -13
16 -12 3 3 -7 10 -18 15 -23 12 -12 -7 -49 26 -42 37 3 5 -1 6 -9 3 -8 -3 -18
0 -23 7 -5 8 -3 10 7 4 12 -8 12 -6 0 8 -7 10 -19 16 -25 15 -11 -3 -156 99
-156 109 0 3 6 1 13 -4 102 -78 137 -103 137 -99 0 3 -46 40 -102 82 -57 42
-92 64 -78 49 l25 -28 -37 27 c-35 26 -53 46 -26 30 7 -4 8 -3 4 5 -4 6 -11 9
-16 6 -4 -3 -33 15 -63 40 -31 25 -61 45 -67 45 -6 0 -8 5 -4 12 5 7 2 9 -9 5
-9 -3 -21 1 -28 11 -8 9 -9 14 -5 10 12 -10 88 100 80 114 -4 6 -2 8 3 5 14
-9 37 19 27 34 -4 7 -3 9 3 6 14 -9 47 29 37 44 -4 7 -3 10 4 5 13 -8 54 43
45 57 -3 5 -1 7 4 4 11 -7 46 39 46 60 0 6 4 11 8 10 11 -3 87 91 110 135 11
21 17 38 14 38 -3 0 4 9 15 20 12 12 18 26 14 32 -4 6 -3 8 2 5 13 -8 107 150
98 165 -4 7 -3 8 4 4 12 -7 36 30 27 44 -3 5 0 12 6 16 8 5 9 3 4 -7 -6 -10
-5 -11 4 -3 7 6 13 20 14 32 0 11 5 19 9 16 9 -6 36 48 31 63 -2 6 1 15 8 19
8 5 9 3 4 -6 -5 -8 -4 -11 3 -6 6 4 9 13 5 21 -3 9 1 15 11 15 9 0 16 5 16 11
0 5 -6 7 -12 4 -7 -4 -2 2 11 13 15 12 21 24 16 32 -5 8 -4 11 3 6 6 -3 16 2
21 13 14 26 14 34 -1 25 -7 -4 -8 -3 -4 5 4 6 11 9 16 6 11 -7 22 24 13 37 -3
6 -1 8 4 5 12 -8 26 20 17 34 -3 5 0 8 8 7 7 -2 12 5 12 14 -1 10 3 15 9 11 6
-4 8 0 4 11 -4 9 -3 15 2 12 12 -8 45 70 37 89 -3 9 -2 14 3 11 12 -8 37 58
51 132 12 67 11 202 -2 202 -4 0 -8 -5 -8 -12 0 -6 -2 -9 -5 -6 -8 8 6 39 15
33 4 -2 5 7 2 20 -2 14 -7 25 -11 25 -3 0 -7 13 -8 29 -4 58 -144 291 -174
291 -5 0 -9 4 -9 10 0 5 21 0 46 -10 25 -11 55 -22 67 -24 12 -2 45 -12 72
-21 87 -30 300 -37 423 -15 229 43 476 200 619 394 39 53 81 130 88 161 1 5 7
22 13 38 7 15 17 39 24 55 6 15 10 35 9 46 -2 12 1 16 10 10 9 -5 10 -2 6 10
-4 9 0 49 9 89 8 40 18 104 21 142 3 39 7 72 9 74 2 2 -1 10 -7 18 -9 10 -8
17 1 28 7 9 8 15 2 15 -5 0 -12 13 -14 29 -2 17 -1 28 4 25 4 -3 8 2 8 11 0 9
-4 14 -9 11 -10 -6 -25 43 -16 52 3 3 5 -3 5 -13 0 -10 2 -16 5 -13 4 3 3 18
-1 33 -5 20 -9 24 -16 13 -7 -9 -8 -7 -5 10 3 12 2 20 -3 17 -4 -2 -13 16 -20
40 -7 25 -17 48 -22 51 -4 3 -5 10 -2 16 4 7 2 8 -4 4 -11 -6 -16 6 -13 27 0
4 -4 7 -10 7 -5 0 -7 5 -4 10 4 6 1 18 -7 27 -7 9 -11 18 -9 20 7 8 -50 103
-59 98 -4 -3 -7 3 -6 12 0 10 -4 18 -11 18 -6 0 -15 4 -20 9 -5 5 -3 6 5 2 23
-13 12 9 -18 37 -17 16 -35 25 -41 21 -7 -4 -9 -3 -5 4 3 6 -11 24 -31 41 -21
17 -58 46 -81 66 -24 19 -49 32 -54 28 -7 -3 -8 -1 -4 5 3 6 -3 16 -14 22 -11
6 -20 8 -20 5 0 -3 -10 3 -22 15 -12 11 -27 21 -32 21 -6 1 -15 2 -21 4 -5 1
-16 3 -23 3 -7 1 -11 6 -8 11 7 11 -81 44 -100 37 -8 -3 -12 -1 -9 4 7 12 -39
24 -60 16 -9 -3 -13 -2 -10 3 3 6 -16 13 -42 16 -27 4 -57 9 -68 13 -11 3 -22
6 -25 7 -3 0 -11 4 -19 9 -11 7 -12 6 -6 -5 7 -12 6 -12 -7 -1 -17 14 -179 15
-230 1z m277 -24 c6 -2 -44 -4 -110 -4 -66 -1 -130 -4 -142 -7 -13 -4 -23 -2
-23 2 0 5 26 11 57 12 32 2 59 4 60 5 3 4 147 -4 158 -8z m224 -300 c36 -17
67 -37 69 -44 2 -7 -14 -1 -37 13 -22 14 -60 33 -83 43 -24 9 -47 20 -53 26
-17 16 35 -3 104 -38z m-1178 -288 c-10 -9 -11 -8 -5 6 3 10 9 15 12 12 3 -3
0 -11 -7 -18z m152 -32 c-3 -9 -8 -14 -10 -11 -3 3 -2 9 2 15 9 16 15 13 8 -4z
m1375 -10 c-3 -3 -9 2 -12 12 -6 14 -5 15 5 6 7 -7 10 -15 7 -18z m-3 -42 c-4
21 -2 27 12 27 15 0 16 -2 3 -10 -14 -9 -7 -15 14 -11 5 1 3 -5 -4 -14 -11
-13 -10 -14 5 -9 12 5 16 4 11 -4 -3 -6 -2 -13 4 -17 5 -3 10 -11 10 -17 0 -7
-10 -1 -21 11 -15 16 -24 19 -29 11 -4 -7 -13 1 -24 23 -22 48 -19 59 5 17 18
-32 20 -33 14 -7z m-1454 -76 c-10 -9 -11 -8 -5 6 3 10 9 15 12 12 3 -3 0 -11
-7 -18z m1477 -2 c-3 -3 -9 2 -12 12 -6 14 -5 15 5 6 7 -7 10 -15 7 -18z m20
-25 c-7 -10 -14 -17 -17 -15 -4 4 18 35 25 35 2 0 -1 -9 -8 -20z m-1653 -10
c3 -5 1 -10 -4 -10 -6 0 -11 5 -11 10 0 6 2 10 4 10 3 0 8 -4 11 -10z m1665
-20 c0 -5 -5 -10 -11 -10 -5 0 -7 5 -4 10 3 6 8 10 11 10 2 0 4 -4 4 -10z
m-1411 -242 c1 -109 13 -180 33 -206 6 -7 8 -15 5 -19 -15 -15 -45 88 -52 177
-4 52 -9 105 -10 118 -1 12 2 22 7 22 5 0 6 5 3 10 -3 6 -2 10 4 10 5 0 10
-46 10 -112z m-172 10 c-3 -8 -6 -5 -6 6 -1 11 2 17 5 13 3 -3 4 -12 1 -19z
m43 12 c0 -5 -5 -10 -11 -10 -5 0 -7 5 -4 10 3 6 8 10 11 10 2 0 4 -4 4 -10z
m-113 -55 c3 -29 2 -45 -4 -42 -5 3 -11 27 -12 53 -2 60 8 52 16 -11z m127
-85 c5 -22 3 -21 -9 5 -8 17 -14 50 -13 75 l0 45 9 -50 c4 -27 10 -61 13 -75z
m-46 105 c-6 -7 8 -79 21 -110 4 -11 16 -37 25 -58 9 -21 16 -43 16 -50 0 -7
8 -21 16 -32 15 -19 15 -19 8 10 -4 17 14 -10 40 -60 26 -49 52 -96 59 -105
10 -13 10 -13 -5 -2 -10 8 -20 22 -23 33 -6 18 -25 18 -25 0 0 -13 52 -61 60
-56 4 3 14 -3 21 -13 12 -15 12 -16 -2 -5 -24 20 -30 4 -8 -21 22 -22 43 -56
35 -56 -2 0 -21 22 -41 49 -26 34 -44 48 -57 46 -10 -2 -16 0 -13 6 4 5 -1 9
-9 9 -17 0 -11 -29 8 -42 8 -5 7 -8 -1 -8 -7 0 -19 14 -28 30 -9 17 -20 30
-25 30 -11 0 -75 128 -68 136 3 3 15 -12 26 -33 11 -21 26 -37 33 -35 10 2 10
0 0 -12 -13 -15 -2 -28 29 -33 8 -1 16 -7 18 -13 2 -5 8 -8 12 -5 5 3 -6 31
-25 62 -19 31 -32 60 -29 65 3 4 -1 11 -10 14 -9 3 -12 12 -9 21 5 12 3 14 -6
8 -10 -6 -11 -2 -6 15 4 14 3 20 -3 16 -8 -5 -33 49 -47 104 -2 8 -4 15 -5 15
-1 0 -3 8 -5 18 -2 9 1 14 6 11 6 -3 7 7 4 25 -3 20 -1 31 7 31 6 0 9 -2 6 -5z
m1559 -47 c-3 -8 -6 -5 -6 6 -1 11 2 17 5 13 3 -3 4 -12 1 -19z m-1586 -208
c4 0 22 -35 39 -77 18 -43 38 -81 46 -86 7 -4 10 -15 7 -25 -3 -9 -3 -14 2
-10 4 4 24 -14 45 -40 48 -60 154 -162 204 -196 21 -14 32 -26 23 -26 -33 0
-229 169 -238 205 -1 6 -9 15 -18 22 -9 7 -13 13 -9 13 4 0 -3 11 -16 25 -28
30 -102 179 -110 220 l-6 30 12 -27 c7 -16 15 -28 19 -28z m260 -77 c17 -24
36 -40 42 -36 6 4 3 11 -8 20 -11 7 -15 13 -9 13 5 0 2 6 -6 13 -26 21 -41 55
-28 63 7 4 8 3 4 -4 -4 -7 0 -12 10 -12 10 0 15 -3 12 -6 -3 -3 4 -15 16 -27
11 -12 36 -40 55 -62 18 -22 30 -34 27 -27 -16 28 4 9 22 -22 20 -34 113 -104
170 -128 22 -9 29 -17 23 -26 -7 -11 -11 -11 -22 0 -8 8 -41 30 -75 50 -33 21
-75 51 -92 68 -19 18 -38 28 -45 24 -7 -4 -9 -4 -5 1 10 10 -31 67 -43 60 -12
-8 0 -29 51 -90 24 -28 10 -17 -31 26 -41 41 -87 100 -102 130 -16 30 -22 45
-13 34 8 -11 29 -39 47 -62z m-71 -168 c13 -14 20 -25 16 -25 -5 0 -2 -8 5
-17 7 -10 1 -7 -15 7 -31 28 -51 60 -38 60 5 0 19 -11 32 -25z m270 -35 c0 -5
-2 -10 -4 -10 -3 0 -8 5 -11 10 -3 6 -1 10 4 10 6 0 11 -4 11 -10z m-126 -46
c3 -8 2 -12 -4 -9 -6 3 -10 10 -10 16 0 14 7 11 14 -7z m323 -20 c-3 -3 -12
-4 -19 -1 -8 3 -5 6 6 6 11 1 17 -2 13 -5z m-343 -145 c-4 -7 -44 0 -44 7 0 2
11 3 24 2 14 -1 23 -5 20 -9z m142 -116 c60 -59 82 -91 123 -175 27 -57 53
-119 56 -138 3 -22 -3 -11 -18 30 -55 152 -126 257 -224 331 -76 56 -85 66
-44 43 19 -10 67 -51 107 -91z m-2309 -369 c-3 -3 -12 -4 -19 -1 -8 3 -5 6 6
6 11 1 17 -2 13 -5z m-113 -16 c-3 -4 -15 -8 -27 -8 -15 0 -18 3 -9 8 17 11
43 11 36 0z m-54 -6 c0 -5 -6 -9 -12 -9 -21 0 -149 -33 -205 -53 -29 -10 -53
-14 -53 -10 0 8 55 26 190 63 65 18 80 20 80 9z m2680 -51 c0 -45 -6 -37 -13
18 -4 29 -2 40 4 30 5 -7 9 -29 9 -48z m-253 -123 c-3 -8 -6 -5 -6 6 -1 11 2
17 5 13 3 -3 4 -12 1 -19z m-2013 -41 c23 -5 45 -13 50 -18 5 -4 -13 -2 -40 5
-27 6 -87 13 -134 15 -47 1 -87 5 -90 7 -9 9 172 1 214 -9z m1960 -92 c-4 -8
-11 -15 -16 -15 -6 0 -5 6 2 15 7 8 14 15 16 15 2 0 1 -7 -2 -15z m-44 -82
c-74 -132 -202 -343 -213 -350 -10 -6 10 32 74 137 15 25 53 90 85 145 58 103
73 125 81 125 3 0 -10 -26 -27 -57z m-3132 -73 c-7 -10 -14 -17 -17 -15 -4 4
18 35 25 35 2 0 -1 -9 -8 -20z m-38 -45 c-11 -13 -11 -18 0 -28 9 -9 11 -9 6
0 -3 6 8 21 26 34 18 13 27 16 21 8 -7 -9 -10 -19 -6 -23 4 -4 0 -4 -10 0 -13
4 -16 2 -12 -9 4 -8 -1 -17 -10 -21 -9 -3 -13 -11 -9 -17 4 -8 3 -9 -4 -5 -7
4 -14 -3 -18 -18 -3 -13 -12 -27 -20 -30 -11 -4 -10 0 2 20 12 18 14 28 6 36
-7 7 -15 2 -25 -19 -9 -16 -23 -36 -32 -43 -10 -8 -3 7 15 33 17 26 35 45 40
42 5 -3 11 -1 15 5 3 5 1 10 -5 10 -6 0 -3 11 6 25 9 14 19 23 22 21 3 -3 -1
-13 -8 -21z m1928 -77 c-13 -23 -31 -54 -41 -68 -10 -14 -51 -83 -92 -155 -40
-71 -78 -131 -84 -133 -12 -4 13 41 147 266 47 78 87 140 89 138 3 -2 -6 -24
-19 -48z m72 2 c-6 -11 -13 -20 -16 -20 -2 0 0 9 6 20 6 11 13 20 16 20 2 0 0
-9 -6 -20z m-2110 -70 c0 -5 -5 -10 -11 -10 -5 0 -7 5 -4 10 3 6 8 10 11 10 2
0 4 -4 4 -10z m2000 -60 c-6 -11 -13 -20 -16 -20 -2 0 0 9 6 20 6 11 13 20 16
20 2 0 0 -9 -6 -20z m-2039 -13 c-10 -9 -11 -8 -5 6 3 10 9 15 12 12 3 -3 0
-11 -7 -18z m1992 -62 c-3 -9 -8 -14 -10 -11 -3 3 -2 9 2 15 9 16 15 13 8 -4z
m-1795 -101 c-18 -25 -37 -48 -43 -52 -5 -3 3 12 19 34 45 60 48 64 53 64 2 0
-11 -21 -29 -46z m1752 26 c-6 -11 -13 -20 -16 -20 -2 0 0 9 6 20 6 11 13 20
16 20 2 0 0 -9 -6 -20z m-34 -58 c-17 -16 -18 -16 -5 5 7 12 15 20 18 17 3 -2
-3 -12 -13 -22z m-195 -25 c-10 -9 -11 -8 -5 6 3 10 9 15 12 12 3 -3 0 -11 -7
-18z m1245 -12 c-1 -8 -5 -17 -8 -21 -5 -4 -4 16 1 34 3 9 9 -1 7 -13z m-1836
-26 c0 -5 4 -8 9 -4 5 3 12 1 16 -4 3 -6 -3 -8 -14 -6 -13 2 -27 -8 -44 -33
-13 -20 -45 -70 -72 -110 -26 -40 -50 -70 -53 -68 -5 6 43 85 100 163 21 29
38 57 38 63 0 5 5 10 10 10 6 0 10 -5 10 -11z m-1390 -90 c-7 -11 -14 -18 -17
-15 -3 3 0 12 7 21 18 21 23 19 10 -6z m1370 -3 c0 -2 -8 -10 -17 -17 -16 -13
-17 -12 -4 4 13 16 21 21 21 13z m-200 -150 c0 -2 -8 -10 -17 -17 -16 -13 -17
-12 -4 4 13 16 21 21 21 13z m550 -227 c-27 -46 -50 -78 -50 -71 0 23 88 166
98 158 1 -2 -20 -41 -48 -87z m111 39 c-5 -13 -30 -59 -55 -103 -25 -44 -46
-89 -46 -102 0 -12 -3 -24 -7 -26 -15 -9 -15 -177 -1 -195 7 -9 8 -13 2 -9 -7
4 -9 -2 -6 -21 5 -24 6 -24 13 -7 7 17 8 16 8 -7 1 -38 11 -59 25 -51 6 4 5
-1 -2 -10 -11 -13 -11 -20 0 -40 23 -44 82 -127 90 -127 4 0 -9 23 -28 51 -19
28 -34 56 -34 63 0 6 10 -5 22 -24 30 -48 80 -106 90 -102 4 1 8 -5 8 -13 0
-8 3 -15 8 -15 4 0 23 -15 42 -33 19 -18 72 -63 118 -101 45 -37 82 -70 82
-73 0 -3 -14 7 -31 21 -17 14 -35 24 -40 20 -5 -3 4 -15 20 -27 61 -45 107
-83 151 -125 38 -37 33 -34 -30 15 -131 103 -148 115 -155 103 -4 -7 -13 -7
-28 1 -31 15 64 -73 97 -91 15 -8 42 -32 59 -55 l32 -40 -42 33 c-24 19 -43
39 -43 45 0 5 -3 7 -6 4 -7 -7 -48 22 -54 38 -4 11 -46 44 -131 104 -31 22
-64 48 -73 57 -10 9 -20 13 -24 10 -7 -8 100 -111 116 -111 5 0 23 -11 39 -25
15 -14 43 -36 60 -50 27 -20 31 -26 20 -39 -10 -14 -10 -14 4 -3 14 11 28 3
95 -51 44 -35 126 -100 184 -145 234 -181 223 -191 -15 -13 -77 58 -142 107
-145 111 -17 21 -102 82 -117 84 -11 2 -17 10 -15 21 2 10 -1 14 -8 10 -6 -3
-9 -1 -8 6 2 7 -2 13 -8 14 -7 0 -21 11 -33 25 -11 14 -20 21 -21 16 0 -5 -7
-3 -15 4 -8 7 -12 17 -8 22 3 6 0 8 -8 6 -16 -6 -119 78 -202 166 -40 41 -72
90 -102 151 -45 92 -71 170 -54 160 5 -4 9 -15 9 -25 0 -10 5 -22 10 -25 6 -3
10 -15 10 -26 0 -11 4 -18 9 -15 5 4 7 -4 3 -16 -3 -14 -1 -19 6 -14 6 3 14
-4 18 -16 10 -35 67 -118 111 -165 22 -24 38 -43 36 -43 -2 0 -1 -5 2 -10 4
-6 11 -8 16 -4 5 3 -17 35 -50 70 -33 36 -69 85 -80 109 -32 67 -25 67 15 0
36 -59 154 -187 141 -152 -4 11 -3 16 4 12 6 -4 8 -13 5 -20 -7 -19 5 -27 21
-14 11 10 18 7 11 -5 -2 -2 6 -13 16 -25 22 -24 45 -29 26 -6 -18 22 -3 18 22
-5 12 -10 25 -17 30 -14 4 3 -7 17 -24 32 -18 15 -46 39 -63 54 -16 14 -41 36
-54 47 -13 12 -21 24 -18 27 3 4 16 -4 29 -17 60 -61 98 -92 105 -86 4 4 -22
34 -58 66 -47 43 -67 56 -76 49 -17 -14 -36 2 -58 48 -9 19 -20 32 -25 29 -6
-3 -7 1 -4 9 3 9 1 16 -6 16 -6 0 -8 5 -5 10 3 6 1 10 -5 10 -6 0 -8 5 -5 10
3 6 1 10 -5 10 -6 0 -8 5 -5 10 3 6 2 10 -4 10 -6 0 -7 7 -4 17 4 10 2 14 -5
9 -7 -4 -10 1 -7 14 2 11 0 20 -5 20 -5 0 -12 22 -16 50 -4 27 -10 48 -14 45
-3 -2 -7 2 -7 10 0 8 3 12 7 10 4 -2 7 2 7 10 0 8 -4 12 -8 10 -4 -3 -9 2 -12
10 -4 8 -1 12 6 9 7 -2 12 5 12 21 0 14 -6 25 -12 25 -7 0 -13 4 -13 10 0 5 7
7 15 3 9 -3 15 -2 14 3 -4 15 13 78 25 93 9 12 8 13 -3 6 -10 -5 -12 -4 -7 3
4 7 14 12 22 12 8 0 14 5 14 11 0 5 -6 7 -12 4 -7 -4 -4 2 8 12 21 18 74 102
87 136 3 9 9 17 11 17 3 0 1 -10 -3 -22z m31 -17 c-9 -16 -18 -28 -21 -26 -4
5 27 55 34 55 2 0 -4 -13 -13 -29z m-931 -4 c-10 -9 -11 -8 -5 6 3 10 9 15 12
12 3 -3 0 -11 -7 -18z m6 -56 c-23 -32 -43 -57 -45 -56 -10 9 66 115 82 115 3
0 -13 -26 -37 -59z m97 7 c-5 -7 -28 -44 -53 -83 -25 -38 -46 -73 -46 -77 0
-15 -65 -97 -85 -108 -20 -10 -18 -6 9 34 17 25 36 48 41 51 5 3 7 12 4 19 -3
7 2 19 11 26 8 7 15 19 15 26 0 8 6 13 13 12 6 -2 11 4 9 12 -2 8 0 12 4 8 4
-4 23 15 42 42 19 28 37 50 39 50 2 0 1 -6 -3 -12z m760 -75 c-32 -63 -47
-105 -51 -146 -3 -32 -10 -60 -16 -64 -6 -3 -7 -2 -4 4 3 5 7 31 8 59 1 27 6
60 11 74 9 26 88 160 94 160 1 0 -17 -39 -42 -87z m-734 47 c-6 -11 -13 -20
-16 -20 -2 0 0 9 6 20 6 11 13 20 16 20 2 0 0 -9 -6 -20z m1788 -10 c-7 -10
-14 -17 -17 -15 -4 4 18 35 25 35 2 0 -1 -9 -8 -20z m-1854 -87 c-59 -85 -71
-98 -48 -52 18 35 82 119 91 119 2 0 -17 -30 -43 -67z m1827 34 c-10 -9 -11
-8 -5 6 3 10 9 15 12 12 3 -3 0 -11 -7 -18z m-40 -10 c-10 -9 -11 -8 -5 6 3
10 9 15 12 12 3 -3 0 -11 -7 -18z m-17 -43 c-5 -18 0 -32 17 -50 30 -32 46
-31 21 1 -19 24 -20 59 -1 71 5 3 5 -5 1 -17 -6 -16 -3 -27 15 -46 14 -13 29
-21 34 -17 5 3 8 0 7 -8 -2 -7 2 -12 9 -11 8 2 10 -4 6 -14 -4 -11 -3 -14 5
-9 6 4 19 -2 29 -14 10 -11 23 -20 29 -20 7 0 14 -4 16 -8 2 -4 18 -18 36 -31
17 -12 32 -27 32 -32 0 -6 -5 -5 -12 1 -40 34 -82 58 -91 53 -7 -4 1 -15 17
-27 49 -35 73 -59 36 -35 -44 29 -120 89 -177 138 -42 38 -49 54 -37 85 10 25
15 19 8 -10z m-1988 -86 c-8 -12 -16 -27 -18 -33 -2 -5 -6 -9 -10 -8 -4 2 -5
-3 -2 -11 3 -7 -11 -30 -30 -51 -20 -21 -33 -42 -30 -47 3 -5 24 16 47 46 22
31 43 54 45 51 2 -2 -6 -18 -18 -34 -12 -17 -19 -31 -16 -31 3 0 -6 -11 -20
-25 -14 -14 -22 -30 -19 -35 3 -6 1 -10 -4 -10 -6 0 -11 -6 -11 -12 -1 -7 -15
-29 -32 -48 l-31 -35 21 36 c12 20 19 38 17 41 -3 3 1 11 10 18 21 17 19 30
-5 25 -16 -3 -6 18 47 95 37 55 69 97 71 95 2 -2 -3 -14 -12 -27z m257 -40
c-17 -18 -42 -53 -56 -78 -25 -43 -86 -121 -71 -90 30 60 136 200 151 200 4 0
-7 -15 -24 -32z m-173 -18 c-14 -9 -7 -14 13 -11 5 1 6 -3 2 -9 -5 -8 -11 -8
-19 -1 -7 6 -17 7 -22 3 -4 -4 -2 1 5 11 7 9 19 17 25 17 6 0 4 -5 -4 -10z
m-35 -51 c-8 -25 -41 -60 -49 -51 -3 3 -6 -1 -6 -8 0 -7 -3 -11 -6 -7 -6 6 52
87 63 87 2 0 1 -9 -2 -21z m16 -12 c-10 -9 -11 -8 -5 6 3 10 9 15 12 12 3 -3
0 -11 -7 -18z m2210 -34 c13 -16 12 -17 -3 -4 -10 7 -18 15 -18 17 0 8 8 3 21
-13z m-2408 -48 c-10 -13 -21 -25 -25 -25 -4 0 -5 -6 -2 -14 3 -7 -6 -23 -20
-33 -14 -11 -22 -24 -18 -28 4 -5 1 -5 -7 0 -12 7 -11 10 3 21 10 7 17 16 18
21 0 4 4 7 10 5 5 -1 8 3 5 10 -2 7 7 25 21 41 32 34 39 35 15 2z m125 -30
c-17 -25 -34 -43 -36 -40 -4 4 56 85 64 85 2 0 -11 -20 -28 -45z m2322 24 c11
-19 10 -20 -10 -9 -11 6 -18 15 -15 21 9 13 13 11 25 -12z m41 -26 c13 -16 12
-17 -3 -4 -10 7 -18 15 -18 17 0 8 8 3 21 -13z m-2457 -28 c-14 -19 -29 -35
-31 -35 -5 0 7 18 36 53 26 31 23 18 -5 -18z m2520 -24 c-3 -3 -15 6 -27 18
l-22 24 27 -19 c14 -10 24 -21 22 -23z m-2338 -6 c-8 -16 -13 -32 -10 -37 3
-5 0 -7 -7 -6 -6 2 -14 -3 -17 -11 -3 -10 0 -11 9 -5 12 6 12 5 1 -8 -8 -9
-20 -14 -27 -11 -11 4 -5 18 23 58 40 57 51 65 28 20z m-146 -26 c-12 -16 -25
-28 -28 -25 -7 7 -32 -13 -32 -26 0 -6 8 -4 18 3 15 13 16 12 4 -3 -8 -9 -19
-15 -25 -12 -7 2 -23 -14 -37 -36 -14 -22 -28 -40 -33 -40 -4 0 11 27 33 60
22 33 45 60 51 60 6 0 8 4 5 9 -3 5 2 15 12 22 15 12 16 12 5 -2 -7 -9 -10
-19 -7 -22 4 -4 15 5 26 18 28 36 34 31 8 -6z m1201 -6 c13 -16 12 -17 -3 -4
-10 7 -18 15 -18 17 0 8 8 3 21 -13z m62 -10 c-3 -7 -6 -13 -8 -13 -2 0 -5 6
-8 13 -3 8 1 14 8 14 7 0 11 -6 8 -14z m-1426 -4 c-9 -6 -14 -15 -11 -21 4 -7
2 -8 -5 -4 -14 9 3 36 23 36 6 0 3 -5 -7 -11z m-28 -55 c-6 -8 -17 -14 -23
-14 -6 0 -4 5 4 10 8 5 11 10 7 10 -5 0 -5 5 -2 10 4 6 11 8 16 4 6 -4 6 -11
-2 -20z m-19 -27 c0 -2 -9 -12 -20 -22 -19 -17 -20 -17 -20 -1 0 9 4 15 9 11
5 -3 12 -1 16 5 6 10 15 14 15 7z m4305 -67 c10 -11 16 -20 13 -20 -3 0 -13 9
-23 20 -10 11 -16 20 -13 20 3 0 13 -9 23 -20z m-4525 -34 c0 -2 -6 -9 -14
-15 -11 -9 -16 -9 -22 0 -4 7 -3 9 4 5 6 -3 13 -2 17 4 6 10 15 14 15 6z m-40
-55 c-5 -11 -15 -23 -21 -27 -6 -3 -3 5 6 20 20 30 30 35 15 7z m361 -24 l-24
-22 19 27 c10 14 21 24 23 22 3 -3 -6 -15 -18 -27z m4008 -21 c-3 -3 -11 5
-18 17 -13 21 -12 21 5 5 10 -10 16 -20 13 -22z m-4422 -40 c-8 -12 -22 -36
-31 -54 -10 -19 -20 -32 -22 -29 -3 3 5 25 17 49 13 23 22 46 22 49 -1 3 5 6
13 6 12 0 12 -3 1 -21z m366 -13 c-24 -39 -53 -77 -53 -70 0 8 60 97 66 97 2
0 -3 -12 -13 -27z m1638 10 c13 -16 12 -17 -3 -4 -17 13 -22 21 -14 21 2 0 10
-8 17 -17z m2169 -26 c0 -6 -9 -2 -20 8 -11 10 -20 23 -20 28 0 6 9 2 20 -8
11 -10 20 -23 20 -28z m-620 -34 c0 -7 -56 35 -71 54 -8 9 5 2 29 -17 23 -18
42 -35 42 -37z m-2773 -2 c0 -11 -4 -18 -7 -16 -10 6 -102 -119 -160 -215 -55
-91 -73 -115 -45 -60 34 66 198 306 212 310 1 0 1 -9 0 -19z m2804 -18 c13
-16 12 -17 -3 -4 -10 7 -18 15 -18 17 0 8 8 3 21 -13z m663 -48 c20 -30 33
-55 29 -55 -8 0 -73 94 -73 105 0 12 10 1 44 -50z m1001 40 c6 -2 -36 -4 -92
-4 -57 -1 -103 2 -103 7 0 7 175 5 195 -3z m-1155 -8 c0 -16 34 -50 42 -42 2
3 5 -2 5 -10 0 -17 -20 -5 -49 30 -20 23 -23 35 -8 35 6 0 10 -6 10 -13z m80
-7 c6 -11 8 -20 6 -20 -3 0 -10 9 -16 20 -6 11 -8 20 -6 20 3 0 10 -9 16 -20z
m863 13 c-7 -2 -19 -2 -25 0 -7 3 -2 5 12 5 14 0 19 -2 13 -5z m260 0 c-7 -2
-19 -2 -25 0 -7 3 -2 5 12 5 14 0 19 -2 13 -5z m-1663 -28 c13 -14 21 -25 18
-25 -2 0 -15 11 -28 25 -13 14 -21 25 -18 25 2 0 15 -11 28 -25z m973 -145
c76 -150 158 -369 156 -415 0 -11 -5 -5 -11 15 -29 104 -88 253 -159 398 -43
89 -79 166 -79 170 0 9 42 -65 93 -168z m-2332 143 c13 -16 12 -17 -3 -4 -10
7 -18 15 -18 17 0 8 8 3 21 -13z m3386 1 c-3 -3 -12 -4 -19 -1 -8 3 -5 6 6 6
11 1 17 -2 13 -5z m-3346 -31 c13 -16 12 -17 -3 -4 -10 7 -18 15 -18 17 0 8 8
3 21 -13z m2548 -34 c-15 -9 -32 -2 -24 11 3 5 13 6 21 3 12 -4 13 -8 3 -14z
m-649 -30 c15 -28 5 -23 -15 7 -9 15 -12 23 -6 20 6 -4 16 -16 21 -27z m-1805
-9 c10 -11 16 -20 13 -20 -3 0 -13 9 -23 20 -10 11 -16 20 -13 20 3 0 13 -9
23 -20z m1963 -5 c-3 -3 -9 2 -12 12 -6 14 -5 15 5 6 7 -7 10 -15 7 -18z
m-2104 -24 c-3 -3 -15 6 -27 18 l-22 24 27 -19 c14 -10 24 -21 22 -23z m197
-7 c23 -25 23 -26 2 -13 -13 7 -25 19 -27 26 -8 19 -2 16 25 -13z m2567 -68
c3 -3 -25 -6 -61 -6 -37 0 -67 4 -67 9 0 9 118 6 128 -3z m389 -2 c-3 -3 -12
-4 -19 -1 -8 3 -5 6 6 6 11 1 17 -2 13 -5z m242 -33 c19 -9 41 -28 50 -42 15
-23 14 -23 -15 3 -36 33 -64 44 -137 53 -31 4 -57 11 -57 15 0 12 123 -10 159
-29z m-306 -22 c204 -4 301 -23 312 -60 4 -10 10 -19 15 -19 8 0 96 -267 92
-277 -1 -2 13 -42 30 -90 38 -109 70 -242 63 -260 -2 -8 -1 -12 4 -9 14 9 21
-20 8 -34 -8 -9 -8 -11 -1 -7 12 7 30 -28 38 -73 2 -14 21 -81 41 -150 20 -69
38 -132 40 -140 22 -84 31 -110 37 -105 4 4 4 -3 1 -16 -5 -17 -3 -20 7 -14
10 6 12 4 7 -10 -4 -10 -3 -32 3 -49 32 -97 71 -250 66 -261 -2 -7 3 -23 11
-36 11 -14 12 -19 3 -14 -9 5 -8 -1 4 -21 16 -29 69 -216 80 -284 3 -19 9 -48
12 -65 3 -16 6 -38 5 -48 0 -9 4 -15 9 -12 15 9 23 -84 12 -123 -15 -50 -65
-108 -114 -133 -75 -38 -188 -20 -242 40 -10 11 -24 18 -30 14 -6 -3 -8 -3 -4
2 4 4 -1 24 -12 45 -11 21 -16 40 -13 44 4 3 2 6 -4 6 -6 0 -17 24 -26 53 -9
28 -30 99 -48 157 -18 58 -34 113 -36 124 -2 10 -10 30 -17 45 -23 41 -31 68
-34 104 -1 9 -6 17 -12 17 -6 0 -6 -9 0 -24 5 -13 6 -26 3 -29 -3 -3 -1 -11 3
-18 4 -7 9 -23 10 -36 2 -22 35 -136 75 -259 23 -73 23 -74 3 -74 -9 0 -14 6
-11 13 2 6 0 23 -6 37 -5 14 -11 34 -12 45 -3 17 -56 200 -110 375 -7 25 -12
68 -11 95 2 28 1 42 -1 33 -3 -10 -8 -18 -13 -18 -17 0 -17 -30 0 -103 29
-126 7 -88 -36 63 -22 77 -37 140 -32 140 4 0 8 -9 8 -19 0 -11 4 -22 9 -26 5
-3 13 -19 16 -37 l7 -31 19 30 c17 27 18 36 7 76 -6 25 -14 44 -17 42 -3 -2
-6 9 -7 23 0 15 -4 43 -8 62 -4 19 -7 42 -8 50 0 21 -64 266 -82 318 -8 23
-13 48 -10 56 3 7 -1 20 -9 27 -7 8 -17 28 -21 44 -3 17 -27 101 -52 187 l-46
157 -98 3 c-54 2 -96 -1 -93 -6 3 -4 0 -12 -7 -16 -8 -5 -5 -9 10 -13 15 -4
20 -2 17 7 -3 7 1 13 8 13 7 0 11 -5 9 -11 -3 -7 16 -12 53 -13 32 -1 63 -2
69 -2 7 -1 15 -21 19 -46 3 -25 10 -43 15 -40 5 3 12 0 16 -6 4 -8 3 -9 -4 -5
-17 10 -15 -5 13 -88 26 -78 32 -113 15 -86 -5 8 -26 67 -47 130 -20 63 -41
117 -45 120 -4 3 -46 5 -92 3 -78 -3 -85 -1 -91 18 -4 11 -9 18 -12 16 -2 -3
0 -14 6 -26 6 -11 7 -22 3 -25 -7 -4 -46 100 -57 151 -25 123 -65 254 -76 247
-4 -2 -5 6 -2 18 4 18 3 20 -6 8 -8 -11 -9 -8 -7 15 4 36 -3 57 -15 49 -5 -3
-6 3 -2 12 4 12 3 15 -5 10 -8 -4 -10 -2 -6 8 3 8 18 16 32 18 28 3 195 2 405
-3z m-4810 -24 c-3 -9 -8 -14 -10 -11 -3 3 -2 9 2 15 9 16 15 13 8 -4z m-500
-35 c3 -11 1 -18 -4 -15 -11 8 -23 -40 -13 -56 5 -8 3 -9 -6 -4 -10 6 -12 4
-7 -9 4 -9 3 -15 -2 -12 -5 3 -21 -39 -36 -94 -15 -55 -29 -100 -31 -100 -14
0 50 241 77 293 12 22 15 22 22 -3z m501 -2 c-4 -5 -8 -7 -12 -4 -3 3 -11 -2
-19 -12 -13 -15 -13 -15 -4 4 5 11 17 21 25 21 8 0 13 -4 10 -9z m1937 -75
c13 -16 12 -17 -3 -4 -17 13 -22 21 -14 21 2 0 10 -8 17 -17z m-1998 -13 c-3
-12 -8 -19 -11 -16 -5 6 5 36 12 36 2 0 2 -9 -1 -20z m-333 -240 c-15 -58 -30
-118 -33 -135 -3 -16 -10 -59 -16 -95 -19 -109 -19 -114 -20 -144 -1 -19 -5
-26 -10 -20 -6 5 -6 28 0 59 5 27 11 68 14 90 11 92 43 230 72 313 26 71 23
43 -7 -68z m-202 -13 c-11 -36 -35 -143 -42 -185 -8 -53 -16 -108 -21 -152
-22 -200 -27 -259 -26 -287 0 -18 -3 -33 -7 -33 -4 0 -8 29 -8 64 1 35 3 63 6
61 3 -2 6 22 7 53 3 152 54 482 75 482 5 0 7 9 3 20 -5 15 -3 18 8 14 12 -4
13 -12 5 -37z m4670 -107 c12 -63 25 -140 29 -170 12 -92 4 -508 -12 -591 -9
-45 -17 -32 -11 16 4 28 9 120 12 205 2 85 4 157 5 160 10 35 -22 300 -49 411
-17 71 -18 111 -3 92 4 -4 17 -60 29 -123z m-4954 -52 c-4 -18 -8 -44 -10 -58
-6 -42 -17 -144 -17 -157 0 -7 -4 -10 -8 -8 -16 10 21 255 38 255 3 0 1 -15
-3 -32z m71 -45 c-4 -38 -10 -97 -14 -133 -4 -36 -6 -99 -5 -140 1 -41 3 -113
4 -160 1 -58 4 -79 10 -65 7 16 9 17 9 3 1 -9 -3 -20 -9 -23 -5 -3 -10 -12
-10 -18 0 -7 4 -6 10 3 8 12 10 10 10 -8 0 -13 -4 -20 -10 -17 -5 3 -10 -1
-10 -9 0 -8 5 -18 10 -21 6 -3 10 -37 10 -74 0 -37 4 -81 9 -97 6 -16 12 -49
15 -73 3 -24 9 -47 12 -50 4 -3 4 12 0 34 -12 79 -19 150 -13 144 4 -3 7 -19
9 -37 1 -18 5 -32 8 -32 3 0 6 -12 7 -27 0 -16 3 -41 6 -58 3 -16 8 -46 12
-65 10 -59 36 -164 45 -187 5 -13 8 -23 5 -23 -6 0 -36 58 -34 67 0 5 -7 45
-17 91 -17 83 -36 113 -28 45 6 -46 45 -196 53 -203 3 -3 6 -9 7 -15 3 -36 39
-134 46 -127 5 5 2 27 -8 51 -9 23 -14 44 -11 47 4 4 16 -26 52 -131 5 -14 2
-13 -8 4 -10 17 -16 20 -22 11 -4 -7 -4 -15 1 -19 5 -3 18 -31 28 -61 11 -30
32 -84 49 -118 16 -35 27 -66 24 -68 -5 -5 -107 222 -107 237 0 5 -4 9 -10 9
-5 0 -9 3 -9 8 3 20 -3 30 -20 35 -31 8 -32 -1 -5 -60 13 -30 21 -59 18 -64
-3 -5 0 -9 6 -9 6 0 9 -4 6 -9 -4 -5 -2 -11 3 -13 5 -1 11 -12 13 -23 1 -11 8
-23 13 -27 6 -4 10 -18 11 -30 1 -13 4 -32 8 -43 5 -13 2 -11 -8 5 -8 14 -13
33 -9 44 3 12 1 16 -6 12 -10 -6 -15 6 -12 27 0 4 -4 7 -10 7 -5 0 -8 4 -5 9
3 5 -1 14 -9 21 -26 22 -18 -6 39 -125 80 -169 238 -429 319 -525 12 -14 5 -9
-16 10 -113 107 -393 592 -368 638 14 27 8 61 -32 175 -19 53 -32 97 -28 97 4
0 16 -26 26 -57 10 -32 20 -53 22 -46 2 6 -8 46 -22 88 -14 43 -24 80 -21 82
3 3 10 -13 16 -36 6 -23 15 -41 21 -41 6 0 8 -9 4 -22 -6 -17 -4 -20 4 -12 14
12 5 64 -11 64 -5 0 -7 4 -4 9 4 5 1 22 -6 38 -6 15 -10 32 -9 37 1 4 -3 14
-9 20 -5 7 -8 15 -5 17 2 3 -5 40 -15 83 -11 43 -21 98 -22 122 0 24 -5 41
-10 38 -4 -3 -6 11 -3 31 3 26 1 34 -8 28 -7 -4 -5 2 3 12 10 12 10 16 2 11
-10 -6 -11 -2 -7 17 4 14 2 28 -4 31 -6 4 -11 31 -11 60 0 28 -6 58 -12 65 -9
9 -9 12 -1 7 8 -4 10 6 7 36 -10 92 -10 277 0 271 5 -4 7 1 3 10 -4 10 -2 17
5 17 6 0 5 6 -3 17 -10 11 -10 14 -1 9 8 -5 12 1 13 21 0 15 2 35 3 43 2 8 7
45 10 83 4 37 10 67 13 67 3 0 2 -30 -2 -67z m42 45 c-3 -8 -6 -5 -6 6 -1 11
2 17 5 13 3 -3 4 -12 1 -19z m5043 -8 c0 -5 -2 -10 -4 -10 -3 0 -8 5 -11 10
-3 6 -1 10 4 10 6 0 11 -4 11 -10z m-311 -64 c6 -22 6 -35 1 -30 -4 5 -11 27
-14 49 -7 45 -2 38 13 -19z m1403 -21 c4 4 3 16 -2 25 -7 14 -5 20 7 25 10 3
14 3 10 -1 -4 -4 1 -16 10 -27 10 -11 13 -17 7 -14 -7 4 -17 1 -23 -7 -9 -10
-8 -25 4 -61 9 -26 15 -49 12 -51 -2 -2 -10 15 -18 38 -7 24 -19 54 -26 68 -7
14 -13 36 -12 50 0 20 3 17 12 -13 7 -22 15 -36 19 -32z m-6144 19 c-1 -19 -5
-37 -9 -40 -4 -2 -6 4 -4 13 2 10 4 28 4 41 1 12 3 22 6 22 3 0 5 -16 3 -36z
m5057 11 c-1 -14 -5 -28 -8 -31 -3 -4 -4 7 -2 22 4 35 4 34 9 34 2 0 3 -11 1
-25z m389 15 c2 -3 -21 -6 -52 -6 -41 -1 -48 0 -27 5 33 8 72 8 79 1z m-736
-57 c5 -29 5 -53 1 -53 -5 0 -9 11 -9 24 0 13 -3 39 -6 57 -4 19 -4 32 -1 29
3 -3 10 -29 15 -57z m637 27 c-3 -5 -13 -10 -21 -10 -8 0 -14 5 -14 10 0 6 9
10 21 10 11 0 17 -4 14 -10z m-279 -59 c-1 -22 -3 -42 -6 -45 -5 -4 -5 35 -1
72 3 28 8 9 7 -27z m1111 32 c-4 -3 -3 -11 2 -17 10 -13 21 -56 15 -56 -5 0
-34 65 -34 75 0 3 5 5 12 5 6 0 8 -3 5 -7z m-1425 -53 c2 -22 0 -40 -4 -40 -5
0 -8 18 -8 40 0 22 2 40 4 40 2 0 6 -18 8 -40z m-4764 -1 c-1 -17 -5 -32 -9
-35 -4 -2 -6 4 -4 13 2 10 4 26 4 36 1 9 3 17 6 17 3 0 4 -14 3 -31z m4651
-41 c-1 -35 -2 -38 -8 -18 -7 23 -4 60 5 60 2 0 4 -19 3 -42z m85 -10 c12 -82
20 -183 19 -248 -1 -52 1 -58 7 -30 l7 35 2 -31 c0 -17 -2 -33 -5 -37 -4 -3
-7 -26 -9 -50 -1 -24 -5 -48 -8 -53 -3 -5 -2 -25 3 -44 7 -33 8 -33 9 -7 1 16
5 26 10 22 6 -3 6 -18 0 -37 -6 -23 -5 -34 4 -40 6 -4 7 -8 2 -8 -6 0 -12 -11
-13 -24 -1 -13 -11 -63 -23 -112 -11 -49 -22 -96 -24 -104 -7 -33 -47 -160
-51 -160 -2 0 -1 14 3 30 3 18 1 30 -5 30 -6 0 -10 -8 -9 -18 1 -23 -61 -173
-80 -192 -13 -12 -12 -10 1 17 29 57 67 173 61 183 -3 6 -1 10 4 10 6 0 10 3
9 8 0 4 2 15 7 25 5 11 3 23 -5 30 -10 10 -11 7 -5 -12 5 -16 4 -21 -4 -17 -6
4 -11 2 -11 -5 0 -7 -2 -10 -5 -8 -2 3 3 29 11 59 24 87 22 84 39 70 11 -9 13
-7 11 17 -2 15 1 34 6 41 6 6 7 12 3 12 -4 0 -3 6 3 13 14 16 25 115 23 195
-1 49 1 62 11 56 10 -6 11 -4 1 7 -15 15 -17 33 -4 25 4 -3 6 7 4 22 -2 15 -4
47 -3 71 0 53 -8 83 -21 76 -5 -4 -9 -1 -9 4 0 6 5 11 10 11 11 0 5 114 -7
133 -4 6 -1 7 7 2 9 -6 11 2 8 34 -5 54 8 53 16 -1z m-27 -10 c-3 -8 -6 -5 -6
6 -1 11 2 17 5 13 3 -3 4 -12 1 -19z m-4723 -90 c-3 -57 -8 -105 -11 -108 -5
-6 -2 151 5 186 10 51 12 20 6 -78z m4789 20 c3 -43 2 -78 -2 -78 -7 0 -11 31
-13 100 -2 92 9 76 15 -22z m311 56 c3 -8 2 -12 -4 -9 -6 3 -10 10 -10 16 0
14 7 11 14 -7z m565 -6 c0 -13 13 -75 30 -138 17 -63 34 -135 36 -159 4 -36
26 -119 61 -229 5 -14 4 -15 -5 -2 -15 20 -58 163 -66 220 -4 25 -24 105 -46
179 -21 74 -36 138 -33 142 10 17 24 9 23 -13z m543 0 c-7 -7 -12 -8 -12 -2 0
14 12 26 19 19 2 -3 -1 -11 -7 -17z m-5872 -2 c0 -3 -4 -8 -10 -11 -5 -3 -10
-1 -10 4 0 6 5 11 10 11 6 0 10 -2 10 -4z m5887 -21 c0 -8 -4 -12 -9 -9 -5 3
-6 10 -3 15 9 13 12 11 12 -6z m10 -40 c0 -8 -4 -12 -9 -9 -5 3 -6 10 -3 15 9
13 12 11 12 -6z m-5922 -4 c3 -5 2 -12 -3 -15 -5 -3 -9 1 -9 9 0 17 3 19 12 6z
m2 -73 c2 -17 0 -19 -7 -8 -5 8 -6 18 -4 22 8 12 10 10 11 -14z m5251 -13 c-3
-3 -9 2 -12 12 -6 14 -5 15 5 6 7 -7 10 -15 7 -18z m-771 -7 c-3 -8 -6 -5 -6
6 -1 11 2 17 5 13 3 -3 4 -12 1 -19z m752 -40 c39 -125 67 -198 73 -192 4 3 4
-4 1 -17 -4 -15 -3 -20 5 -15 8 5 12 -5 12 -33 0 -22 4 -42 9 -45 10 -6 22
-55 27 -106 2 -19 8 -36 14 -38 5 -2 8 -8 5 -12 -3 -5 3 -31 14 -59 10 -27 16
-52 13 -55 -3 -4 -1 -6 5 -6 10 0 16 -23 28 -110 3 -19 -5 -2 -18 38 -13 40
-26 69 -30 65 -5 -4 -5 0 -1 10 3 9 2 17 -4 17 -6 0 -12 -6 -15 -12 -2 -7 -8
1 -11 17 -4 17 -12 40 -17 53 -5 13 -9 28 -9 35 1 20 30 -54 30 -77 1 -19 2
-19 11 -4 7 12 7 24 0 37 -6 10 -7 21 -4 25 3 3 2 6 -3 6 -5 0 -10 10 -12 23
-1 13 -8 42 -17 66 -8 24 -15 55 -15 70 0 21 -2 23 -11 11 -8 -12 -9 -10 -4 9
5 17 4 21 -5 16 -10 -6 -11 -1 -6 19 4 16 3 25 -2 22 -6 -3 -15 15 -21 40 -6
24 -15 43 -19 40 -4 -2 -8 10 -9 26 -1 17 -7 35 -12 42 -13 15 -32 66 -25 66
2 0 9 -10 14 -22 16 -40 11 11 -5 57 -16 42 -18 55 -10 55 2 0 13 -28 24 -62z
m-5616 32 c3 -11 1 -23 -4 -26 -5 -3 -9 6 -9 20 0 31 6 34 13 6z m5539 -57 c9
-35 12 -60 7 -57 -9 5 -29 73 -34 112 -4 42 12 9 27 -55z m142 -82 c18 -60 10
-62 -11 -3 -16 43 -21 64 -28 112 -4 29 -3 28 9 -10 7 -25 21 -69 30 -99z
m-517 67 c-3 -8 -6 -5 -6 6 -1 11 2 17 5 13 3 -3 4 -12 1 -19z m-419 -37 c8
-24 8 -29 -2 -25 -8 3 -13 16 -13 30 0 31 3 30 15 -5z m-4559 -49 c1 -31 4
-70 6 -85 3 -15 2 -27 -3 -27 -4 0 -9 17 -10 38 -2 20 -5 58 -7 85 -3 26 -1
47 3 47 5 0 10 -26 11 -58z m4554 -9 c-4 -9 -2 -14 3 -10 6 3 9 -6 8 -21 -4
-50 -26 -196 -30 -204 -7 -11 -16 -49 -17 -78 -1 -14 -6 -31 -10 -37 -5 -7 -6
-17 -2 -22 3 -5 1 -12 -4 -15 -18 -11 -20 11 -6 65 7 30 16 72 20 94 19 131
25 174 25 213 0 25 4 41 10 37 5 -3 6 -13 3 -22z m-4345 -24 c-1 -17 -4 -25
-8 -18 -7 10 -2 49 5 49 2 0 3 -14 3 -31z m-438 -44 c0 -19 4 -36 9 -39 4 -3
7 -18 5 -33 -1 -15 0 -32 4 -38 3 -5 7 -17 8 -25 12 -93 29 -180 34 -180 4 0
1 28 -6 63 -7 34 -13 85 -12 112 l0 50 8 -50 c4 -27 11 -63 15 -80 3 -16 8
-41 10 -55 2 -14 4 -25 5 -25 2 0 11 -55 12 -75 1 -8 6 -18 11 -22 5 -3 11
-17 12 -30 1 -12 7 -43 14 -67 7 -23 10 -46 7 -49 -8 -7 -37 63 -43 106 -4 21
-9 30 -15 24 -6 -6 -7 -20 -2 -33 4 -13 7 -27 6 -31 -1 -5 2 -8 7 -8 5 0 7
-10 3 -22 -3 -13 -1 -19 5 -15 7 5 9 0 6 -13 -3 -11 -1 -20 4 -20 6 0 8 -11 5
-25 -2 -14 0 -25 6 -25 6 0 18 -24 28 -52 9 -29 23 -65 31 -80 8 -17 9 -28 3
-28 -5 0 -10 -5 -10 -11 0 -5 4 -8 9 -5 5 3 11 -1 15 -9 6 -17 -2 -45 -13 -45
-8 0 -11 15 -12 69 -1 25 -3 30 -11 20 -7 -10 -8 -8 -3 9 4 12 2 22 -4 22 -6
0 -7 7 -4 17 5 11 3 14 -6 8 -10 -5 -11 -2 -7 13 5 13 1 22 -10 26 -9 3 -14
12 -11 20 3 7 2 17 -3 22 -8 9 -66 224 -76 282 -7 41 -23 134 -28 166 -3 15
-8 65 -12 110 -3 44 -9 85 -12 90 -3 5 0 6 6 2 7 -4 12 -22 12 -41z m130 19
c0 -8 -19 -13 -24 -6 -3 5 1 9 9 9 8 0 15 -2 15 -3z m4681 -51 c-4 -21 -7 -50
-6 -65 1 -16 -1 -28 -5 -28 -4 0 -6 -16 -4 -35 1 -19 -1 -33 -5 -31 -10 7 -8
-36 3 -53 6 -9 5 -12 0 -8 -6 3 -27 -53 -48 -126 -20 -72 -40 -134 -44 -137
-4 -3 -9 -14 -10 -25 -4 -23 -19 -41 -27 -33 -3 3 1 18 10 34 8 16 15 35 15
42 0 6 4 12 10 12 5 0 7 7 4 15 -4 8 -2 15 3 15 12 0 48 147 68 275 8 55 17
111 19 125 3 14 5 33 5 43 1 9 5 17 10 17 4 0 5 -17 2 -37z m839 -46 c0 -11 3
-17 7 -13 9 9 55 -153 47 -166 -3 -4 0 -8 6 -8 6 0 8 -5 5 -10 -4 -6 -2 -16 3
-23 5 -7 7 -20 3 -30 -4 -12 -16 18 -35 85 -15 57 -36 127 -47 156 -14 42 -15
51 -4 42 8 -7 15 -22 15 -33z m-5409 16 c2 -39 6 -70 14 -103 11 -48 14 -92 6
-85 -3 4 -6 14 -7 23 0 10 -5 42 -11 72 -19 90 -21 110 -12 110 5 0 9 -8 10
-17z m6212 -13 c3 -11 1 -18 -4 -14 -5 3 -9 12 -9 20 0 20 7 17 13 -6z m-644
-101 c17 -59 31 -112 30 -120 0 -17 -68 200 -69 220 0 28 9 4 39 -100z m-812
56 c0 -8 -4 -12 -9 -9 -5 3 -6 10 -3 15 9 13 12 11 12 -6z m-45 -37 c-6 -6 -7
0 -4 19 5 21 7 23 10 9 2 -10 0 -22 -6 -28z m754 15 c4 -16 12 -37 17 -48 6
-11 11 -27 12 -35 0 -8 6 -14 13 -12 8 1 11 -2 7 -8 -3 -6 -10 -8 -15 -5 -5 3
-2 -8 6 -24 21 -43 43 -121 34 -121 -5 0 -12 15 -15 33 -4 17 -14 43 -21 57
-20 35 -63 190 -53 190 5 0 12 -12 15 -27z m761 -15 c-3 -8 -6 -5 -6 6 -1 11
2 17 5 13 3 -3 4 -12 1 -19z m-578 -43 c0 -5 -4 -3 -9 5 -5 8 -9 22 -9 30 0
16 17 -16 18 -35z m-942 3 c-3 -8 -6 -5 -6 6 -1 11 2 17 5 13 3 -3 4 -12 1
-19z m995 -22 c4 3 4 -3 1 -15 -3 -12 -1 -21 5 -21 6 0 8 -9 5 -21 -8 -28 -18
-13 -32 43 -14 59 -13 71 3 35 7 -15 15 -25 18 -21z m-942 14 c0 -5 -2 -10 -4
-10 -3 0 -8 5 -11 10 -3 6 -1 10 4 10 6 0 11 -4 11 -10z m-57 -30 c-3 -11 -7
-20 -9 -20 -2 0 -4 9 -4 20 0 11 4 20 9 20 5 0 7 -9 4 -20z m32 10 c-3 -5 -2
-10 3 -10 5 0 9 -7 9 -15 0 -8 -5 -11 -10 -8 -6 4 -8 -3 -5 -15 4 -12 1 -22
-4 -22 -6 0 -8 -13 -4 -32 4 -25 3 -29 -5 -18 -8 12 -10 8 -6 -15 3 -16 1 -39
-3 -50 -7 -18 -8 -19 -15 -2 -4 9 -4 30 -1 45 3 15 9 38 12 52 3 14 7 32 9 40
2 8 4 17 6 20 2 5 6 21 8 33 0 4 4 7 7 7 3 0 2 -4 -1 -10z m192 -22 c-3 -7 -5
-2 -5 12 0 14 2 19 5 13 2 -7 2 -19 0 -25z m-4940 0 c-3 -8 -6 -5 -6 6 -1 11
2 17 5 13 3 -3 4 -12 1 -19z m4965 -30 c-6 -6 -7 0 -4 19 5 21 7 23 10 9 2
-10 0 -22 -6 -28z m-5005 0 c-3 -8 -6 -5 -6 6 -1 11 2 17 5 13 3 -3 4 -12 1
-19z m4960 -65 c-8 -29 -11 -53 -7 -53 5 0 13 23 20 50 13 55 32 69 24 18 -3
-18 -6 -38 -6 -45 -1 -7 -5 -10 -10 -7 -4 3 -8 0 -8 -5 0 -6 6 -11 13 -11 8 0
9 -3 1 -8 -6 -4 -10 -15 -8 -24 1 -10 -2 -18 -8 -18 -6 0 -8 -7 -4 -15 3 -8 1
-15 -4 -15 -5 0 -7 -6 -5 -12 3 -7 1 -26 -4 -43 -8 -25 -9 -21 -8 27 1 32 5
58 9 58 4 0 6 9 5 20 -2 25 -17 27 -18 3 0 -13 -2 -14 -6 -4 -3 8 3 48 13 89
10 42 20 69 22 61 1 -8 -4 -38 -11 -66z m-4910 45 c-3 -8 -6 -5 -6 6 -1 11 2
17 5 13 3 -3 4 -12 1 -19z m41 2 c-7 -10 -14 -18 -15 -16 -6 6 9 36 18 36 5 0
4 -9 -3 -20z m4649 -17 c-3 -21 -10 -57 -16 -81 -12 -43 -7 -82 10 -82 5 0 9
-6 9 -12 -1 -7 -10 -2 -20 11 -18 21 -20 21 -22 5 -2 -34 -4 -38 -32 -99 -55
-118 -79 -165 -83 -161 -3 2 3 19 13 37 15 30 93 240 98 264 6 33 40 155 43
155 2 0 2 -17 0 -37z m-4679 -34 c-3 -8 -7 -3 -11 10 -4 17 -3 21 5 13 5 -5 8
-16 6 -23z m5599 9 c-3 -8 -6 -5 -6 6 -1 11 2 17 5 13 3 -3 4 -12 1 -19z
m-1133 -43 c-22 -106 -163 -409 -245 -525 -69 -99 -62 -69 13 52 26 43 48 80
48 82 0 3 20 46 44 95 45 92 69 154 72 182 2 23 14 40 24 34 11 -7 23 32 14
46 -4 8 -3 9 5 5 8 -5 10 0 7 18 -3 16 -1 24 5 20 6 -3 7 5 4 23 -5 22 -4 25
4 13 6 -8 8 -28 5 -45z m1256 24 c0 -6 -4 -7 -10 -4 -5 3 -10 11 -10 16 0 6 5
7 10 4 6 -3 10 -11 10 -16z m-235 -10 c-5 -14 -3 -19 3 -15 7 4 16 -11 22 -36
6 -24 29 -104 49 -178 21 -74 42 -148 45 -165 7 -28 6 -29 -7 -10 -18 26 -99
298 -94 316 2 8 2 11 0 7 -12 -20 -21 -5 -11 17 10 21 8 27 -7 39 -11 8 -16
20 -12 30 9 24 19 20 12 -5z m135 -24 c0 -5 -5 -3 -10 5 -5 8 -10 20 -10 25 0
6 5 3 10 -5 5 -8 10 -19 10 -25z m-5613 -7 c-3 -7 -5 -2 -5 12 0 14 2 19 5 13
2 -7 2 -19 0 -25z m5537 -23 c3 -8 2 -22 -1 -32 -5 -11 -3 -14 6 -8 10 5 11 2
6 -14 -4 -13 -2 -21 5 -21 6 0 8 -5 4 -11 -9 -15 -26 15 -29 51 -1 15 -5 32
-9 38 -4 7 -3 12 2 12 6 0 12 -7 16 -15z m-5515 -45 c0 -9 -4 -8 -9 5 -5 11
-9 27 -9 35 0 9 4 8 9 -5 5 -11 9 -27 9 -35z m4831 -17 c-11 -17 -11 -17 -6 0
3 10 6 24 7 30 0 9 2 9 5 0 3 -7 0 -20 -6 -30z m-4786 -95 c22 -73 29 -86 44
-81 14 6 15 4 4 -9 -13 -17 -7 -48 11 -48 6 0 8 -2 5 -6 -10 -10 39 -144 88
-238 8 -16 13 -31 10 -33 -5 -5 -89 169 -126 262 -50 125 -81 228 -74 244 3 9
8 12 9 6 2 -5 15 -49 29 -97z m5663 20 c-3 -8 -6 -5 -6 6 -1 11 2 17 5 13 3
-3 4 -12 1 -19z m-5393 -123 c19 -49 29 -81 21 -71 -14 18 -43 88 -60 146 -15
49 4 14 39 -75z m4506 71 c0 -2 -6 -9 -14 -15 -11 -9 -16 -9 -22 0 -4 7 -3 9
4 5 6 -3 13 -2 17 4 6 10 15 14 15 6z m-4494 -31 c-2 -7 1 -16 9 -18 7 -3 16
-19 20 -36 4 -17 11 -29 16 -25 5 3 9 1 9 -4 0 -6 -7 -13 -16 -16 -8 -3 -12
-2 -9 3 3 5 0 13 -5 16 -13 8 -31 51 -35 82 -1 12 2 20 7 17 5 -3 7 -12 4 -19z
m5304 -10 c0 -5 -5 -3 -10 5 -5 8 -10 20 -10 25 0 6 5 3 10 -5 5 -8 10 -19 10
-25z m-5520 17 c0 -4 -9 -8 -20 -9 -11 -1 -20 2 -20 5 0 4 9 8 20 9 11 1 20
-2 20 -5z m4671 -22 c-7 -4 -9 -15 -4 -25 6 -17 5 -18 -9 -5 -11 11 -13 19 -5
32 6 9 15 14 20 11 5 -3 4 -9 -2 -13z m976 -52 c-3 -8 -6 -5 -6 6 -1 11 2 17
5 13 3 -3 4 -12 1 -19z m-5349 -83 c12 -25 17 -45 12 -45 -6 0 -10 6 -10 13 0
6 -9 23 -19 36 -27 35 -37 8 -12 -33 12 -18 21 -37 21 -42 0 -5 -12 10 -25 33
-22 36 -24 45 -13 63 7 11 15 20 18 20 3 0 16 -20 28 -45z m5141 -15 c0 -9 -4
-8 -9 5 -5 11 -9 27 -9 35 0 9 4 8 9 -5 5 -11 9 -27 9 -35z m-1069 32 c0 -5
-7 -17 -15 -28 -14 -18 -14 -17 -4 9 12 27 19 34 19 19z m244 -42 c-6 -6 -10
-3 -10 10 0 13 4 16 10 10 7 -7 7 -13 0 -20z m-386 0 c-7 -10 -14 -17 -17 -15
-4 4 18 35 25 35 2 0 -1 -9 -8 -20z m-3894 -76 c3 -8 2 -12 -4 -9 -6 3 -10 10
-10 16 0 14 7 11 14 -7z m-1 -41 c-5 -12 -3 -14 7 -8 8 5 11 4 6 -3 -3 -5 0
-13 6 -15 8 -4 9 -6 2 -6 -16 -1 -37 26 -29 39 10 16 15 12 8 -7z m5427 -2 c0
-6 -4 -12 -8 -15 -5 -3 -9 1 -9 9 0 8 4 15 9 15 4 0 8 -4 8 -9z m-5370 -72
c15 -28 5 -23 -15 7 -9 15 -12 23 -6 20 6 -4 16 -16 21 -27z m3852 3 c-4 -10
-20 -34 -35 -53 -30 -35 -28 -30 12 34 25 40 35 48 23 19z m-4124 -27 c-3 -3
-9 2 -12 12 -6 14 -5 15 5 6 7 -7 10 -15 7 -18z m593 8 c13 -16 12 -17 -3 -4
-10 7 -18 15 -18 17 0 8 8 3 21 -13z m-295 -39 c1 -9 0 -13 -4 -10 -3 4 -7 14
-8 22 -1 9 0 13 4 10 3 -4 7 -14 8 -22z m3564 13 c0 -2 -10 -12 -22 -23 l-23
-19 19 23 c18 21 26 27 26 19z m-3880 -148 c15 -28 5 -23 -15 7 -9 15 -12 23
-6 20 6 -4 16 -16 21 -27z m151 -36 c13 -16 12 -17 -3 -4 -17 13 -22 21 -14
21 2 0 10 -8 17 -17z m-253 -38 c-3 -3 -9 2 -12 12 -6 14 -5 15 5 6 7 -7 10
-15 7 -18z m314 -39 c16 -29 -7 -11 -33 27 l-23 32 23 -20 c13 -11 27 -28 33
-39z m3669 -80 c-6 -7 -7 -17 -3 -21 4 -5 1 -5 -6 -1 -9 6 -10 11 -3 20 6 7 7
17 3 21 -4 5 -1 5 6 1 9 -6 10 -11 3 -20z m209 -10 c0 -2 -8 -10 -17 -17 -16
-13 -17 -12 -4 4 13 16 21 21 21 13z m-6 -48 c-16 -18 -47 -50 -69 -73 -32
-33 -34 -34 -10 -5 47 55 99 110 104 110 3 0 -8 -14 -25 -32z m-4015 -62 c-2
-2 -13 8 -23 22 l-19 27 24 -22 c12 -12 21 -24 18 -27z m771 -122 c0 -3 -27
16 -60 41 -33 25 -60 48 -60 51 0 3 27 -16 60 -41 33 -25 60 -48 60 -51z
m3120 62 c0 -2 -8 -10 -17 -17 -16 -13 -17 -12 -4 4 13 16 21 21 21 13z
m-3760 -27 c0 -6 -4 -7 -10 -4 -5 3 -10 11 -10 16 0 6 5 7 10 4 6 -3 10 -11
10 -16z m360 -23 c0 -2 -7 -9 -15 -16 -13 -11 -14 -10 -9 4 5 14 24 23 24 12z
m340 -58 c0 -13 -5 -9 -31 19 l-24 26 27 -19 c15 -10 28 -22 28 -26z"/>
<path d="M5790 8677 c0 -23 31 -78 40 -72 5 3 0 24 -11 45 -22 42 -29 48 -29
27z"/>
<path d="M5780 8571 c0 -5 5 -13 10 -16 6 -3 10 -2 10 4 0 5 -4 13 -10 16 -5
3 -10 2 -10 -4z"/>
<path d="M5830 8561 c0 -6 4 -13 10 -16 6 -3 7 1 4 9 -7 18 -14 21 -14 7z"/>
<path d="M5840 8466 c0 -2 8 -10 18 -17 15 -13 16 -12 3 4 -13 16 -21 21 -21
13z"/>
<path d="M4395 5470 c-5 -7 -2 -16 6 -20 8 -5 27 -20 43 -34 29 -24 60 -27 33
-3 -7 7 -27 25 -44 40 -22 21 -33 25 -38 17z"/>
<path d="M4370 5413 c1 -14 50 -44 61 -38 5 4 16 2 24 -5 7 -6 16 -7 19 -2 3
5 -8 18 -24 30 -17 13 -31 18 -35 12 -4 -7 -13 -7 -26 0 -10 6 -19 7 -19 3z
m64 -24 c-3 -5 -10 -7 -15 -3 -5 3 -7 10 -3 15 3 5 10 7 15 3 5 -3 7 -10 3
-15z"/>
<path d="M4560 5246 c0 -2 8 -10 18 -17 15 -13 16 -12 3 4 -13 16 -21 21 -21
13z"/>
<path d="M5220 6003 c1 -14 89 -73 94 -64 7 10 -19 34 -40 37 -7 1 -21 9 -30
18 -17 18 -24 20 -24 9z"/>
<path d="M7560 4855 c0 -5 5 -17 10 -25 5 -8 10 -10 10 -5 0 6 -5 17 -10 25
-5 8 -10 11 -10 5z"/>
<path d="M7737 4529 c4 -13 8 -18 11 -10 2 7 -1 18 -6 23 -8 8 -9 4 -5 -13z"/>
<path d="M8365 4500 c3 -5 8 -10 11 -10 2 0 4 5 4 10 0 6 -5 10 -11 10 -5 0
-7 -4 -4 -10z"/>
<path d="M8214 3448 c2 -16 0 -28 -4 -28 -4 0 -5 -11 -2 -25 5 -28 17 -33 26
-10 3 8 1 15 -5 15 -6 0 -8 4 -5 8 3 5 1 22 -4 38 l-10 29 4 -27z"/>
<path d="M8235 3310 c3 -5 8 -10 11 -10 2 0 4 5 4 10 0 6 -5 10 -11 10 -5 0
-7 -4 -4 -10z"/>
<path d="M2302 3730 c0 -14 2 -19 5 -12 2 6 2 18 0 25 -3 6 -5 1 -5 -13z"/>
<path d="M2415 3130 c-3 -5 -1 -10 5 -10 6 0 9 -8 6 -18 -4 -12 -1 -19 8 -19
11 0 12 6 4 29 -11 31 -14 33 -23 18z"/>
<path d="M7091 3633 c0 -17 -5 -34 -10 -37 -5 -3 -12 -26 -15 -51 -5 -31 -11
-43 -19 -38 -9 5 -9 3 0 -8 18 -23 19 -25 6 -40 -15 -18 -43 -138 -33 -144 6
-4 23 42 35 94 25 105 45 220 42 236 -3 12 -5 7 -6 -12z"/>
<path d="M7006 3428 c-8 -32 -7 -38 5 -38 5 0 8 4 4 9 -3 5 -1 12 5 16 12 8
13 35 1 35 -5 0 -11 -10 -15 -22z"/>
<path d="M2284 3383 c1 -25 5 -38 10 -33 5 6 5 22 -1 42 l-10 33 1 -42z"/>
<path d="M6875 3260 c-3 -5 -1 -10 4 -10 6 0 11 5 11 10 0 6 -2 10 -4 10 -3 0
-8 -4 -11 -10z"/>
<path d="M6105 9860 c-3 -6 1 -7 9 -4 18 7 21 14 7 14 -6 0 -13 -4 -16 -10z"/>
<path d="M6184 9704 c-18 -14 -18 -15 4 -4 12 6 22 13 22 15 0 8 -5 6 -26 -11z"/>
<path d="M5950 9690 c-14 -10 -22 -21 -19 -24 3 -3 16 5 29 19 28 30 24 32
-10 5z"/>
<path d="M5969 9643 c-19 -21 -42 -47 -50 -58 -14 -19 -13 -19 11 -4 14 9 25
21 25 26 0 10 24 37 40 44 8 3 18 29 11 29 -1 0 -18 -17 -37 -37z"/>
<path d="M5879 9653 c-13 -16 -12 -17 4 -4 9 7 17 15 17 17 0 8 -8 3 -21 -13z"/>
<path d="M6064 9574 c-18 -14 -18 -15 4 -4 12 6 22 13 22 15 0 8 -5 6 -26 -11z"/>
<path d="M5989 9543 c-13 -16 -12 -17 4 -4 9 7 17 15 17 17 0 8 -8 3 -21 -13z"/>
<path d="M5830 9505 c-11 -13 -11 -18 0 -28 10 -9 11 -9 6 1 -4 7 -2 19 4 27
7 8 10 15 7 15 -2 0 -10 -7 -17 -15z"/>
<path d="M7090 9441 c0 -6 4 -13 10 -16 6 -3 7 1 4 9 -7 18 -14 21 -14 7z"/>
<path d="M5972 9370 c-18 -29 -15 -38 4 -12 9 13 14 25 12 27 -2 2 -9 -5 -16
-15z"/>
<path d="M5571 8884 c0 -11 3 -14 6 -6 3 7 2 16 -1 19 -3 4 -6 -2 -5 -13z"/>
<path d="M5595 8750 c8 -45 18 -55 12 -12 -3 19 -8 37 -12 40 -3 4 -3 -9 0
-28z"/>
<path d="M5541 8189 c-39 -15 -54 -31 -40 -40 18 -11 39 0 32 17 -3 8 -1 14 3
14 23 1 89 13 93 16 9 8 -65 2 -88 -7z"/>
<path d="M5297 8115 c-20 -14 -37 -28 -37 -31 0 -2 18 8 40 22 35 23 47 34 37
34 -1 0 -19 -11 -40 -25z"/>
<path d="M5412 7986 c-46 -33 -53 -43 -14 -20 19 10 38 25 44 32 15 17 8 14
-30 -12z"/>
<path d="M5062 7693 c-10 -16 -24 -38 -31 -50 -21 -41 -5 -24 27 27 33 54 36
68 4 23z"/>
<path d="M4990 7680 c-6 -11 -8 -20 -6 -20 3 0 10 9 16 20 6 11 8 20 6 20 -3
0 -10 -9 -16 -20z"/>
<path d="M5062 7607 c-33 -52 -68 -109 -77 -128 l-18 -34 21 19 c12 10 19 22
17 26 -3 4 2 11 11 14 8 3 12 10 9 16 -3 5 -1 10 5 10 6 0 9 4 6 8 -3 5 10 25
29 47 19 21 32 42 29 46 -3 5 0 9 6 9 6 0 9 4 6 9 -4 5 -1 11 6 13 10 4 22 38
13 38 -2 0 -30 -42 -63 -93z"/>
<path d="M5191 7594 c-12 -19 -16 -32 -11 -29 11 7 43 65 36 65 -2 0 -13 -16
-25 -36z"/>
<path d="M4935 7594 c-9 -15 -12 -23 -6 -20 11 7 35 46 28 46 -3 0 -12 -12
-22 -26z"/>
<path d="M4964 7588 c-4 -7 -14 -24 -22 -38 -14 -24 -13 -24 3 -5 20 24 37 55
31 55 -3 0 -8 -6 -12 -12z"/>
<path d="M5126 7553 c-6 -14 -5 -15 5 -6 7 7 10 15 7 18 -3 3 -9 -2 -12 -12z"/>
<path d="M4900 7540 c-6 -11 -8 -20 -6 -20 3 0 10 9 16 20 6 11 8 20 6 20 -3
0 -10 -9 -16 -20z"/>
<path d="M4878 7398 c-78 -125 -87 -142 -54 -103 14 17 26 33 26 38 0 7 49 86
60 97 10 10 41 70 36 70 -2 0 -33 -46 -68 -102z"/>
<path d="M5080 7480 c-6 -11 -8 -20 -6 -20 3 0 10 9 16 20 6 11 8 20 6 20 -3
0 -10 -9 -16 -20z"/>
<path d="M2875 7382 c-16 -19 -34 -42 -39 -51 -5 -9 -5 -12 0 -6 5 6 24 27 43
47 19 21 33 39 30 41 -2 2 -17 -12 -34 -31z"/>
<path d="M5030 7400 c-6 -11 -8 -20 -6 -20 3 0 10 9 16 20 6 11 8 20 6 20 -3
0 -10 -9 -16 -20z"/>
<path d="M4948 7388 c-22 -34 -42 -74 -31 -63 14 15 55 85 50 85 -3 0 -11 -10
-19 -22z"/>
<path d="M4110 7338 c-15 -21 -17 -28 -6 -19 16 13 41 51 33 51 -2 0 -14 -15
-27 -32z"/>
<path d="M4266 7263 c-6 -14 -5 -15 5 -6 7 7 10 15 7 18 -3 3 -9 -2 -12 -12z"/>
<path d="M4857 7113 c-36 -58 -39 -63 -33 -63 2 0 18 23 35 50 17 28 29 50 26
50 -3 0 -15 -17 -28 -37z"/>
<path d="M4934 7077 c-26 -38 -39 -64 -31 -57 12 11 58 82 55 86 -2 1 -13 -12
-24 -29z"/>
<path d="M3931 7067 c-13 -21 -12 -21 5 -5 10 10 16 20 13 22 -3 3 -11 -5 -18
-17z"/>
<path d="M3982 7044 c-12 -19 -20 -34 -18 -34 7 0 49 61 44 65 -2 2 -13 -12
-26 -31z"/>
<path d="M4895 7069 c-4 -6 -5 -12 -2 -15 2 -3 7 2 10 11 7 17 1 20 -8 4z"/>
<path d="M4035 7040 c-3 -5 -3 -10 1 -10 3 0 -4 -9 -17 -20 -18 -14 -20 -19
-9 -20 9 0 24 14 33 30 10 17 14 30 8 30 -5 0 -13 -4 -16 -10z"/>
<path d="M4544 7033 c-6 -10 -27 -44 -47 -75 -25 -39 -33 -59 -25 -64 6 -4 8
-3 4 4 -3 5 -2 12 2 14 5 1 24 28 43 58 51 80 51 80 42 80 -5 0 -13 -8 -19
-17z"/>
<path d="M3911 6987 c-13 -21 -12 -21 5 -5 10 10 16 20 13 22 -3 3 -11 -5 -18
-17z"/>
<path d="M3989 6973 c-1 -5 -1 -11 0 -15 0 -5 -3 -8 -8 -8 -5 0 -16 -12 -26
-26 -16 -25 -16 -25 4 -15 11 6 23 16 26 21 8 13 15 50 9 50 -2 0 -5 -3 -5 -7z"/>
<path d="M4121 6957 c-13 -21 -12 -21 5 -5 10 10 16 20 13 22 -3 3 -11 -5 -18
-17z"/>
<path d="M4566 6962 c-3 -5 1 -9 9 -9 8 0 12 4 9 9 -3 4 -7 8 -9 8 -2 0 -6 -4
-9 -8z"/>
<path d="M4063 6938 c-15 -20 -25 -38 -20 -38 3 0 12 11 21 25 17 26 16 35 -1
13z"/>
<path d="M3888 6908 c-50 -68 -69 -98 -61 -98 4 0 20 19 35 43 15 23 35 52 44
65 9 12 14 22 11 22 -2 0 -16 -15 -29 -32z"/>
<path d="M4536 6912 c-3 -5 1 -9 9 -9 8 0 12 4 9 9 -3 4 -7 8 -9 8 -2 0 -6 -4
-9 -8z"/>
<path d="M3931 6857 c-13 -21 -12 -21 5 -5 10 10 16 20 13 22 -3 3 -11 -5 -18
-17z"/>
<path d="M3671 6766 c-10 -12 -8 -13 8 -9 12 3 18 9 15 14 -7 12 -10 11 -23
-5z"/>
<path d="M3970 6650 c-12 -16 -19 -30 -16 -30 2 0 14 14 26 30 12 17 19 30 16
30 -2 0 -14 -13 -26 -30z"/>
<path d="M4275 6634 c-9 -14 -15 -27 -13 -30 2 -2 12 10 22 26 21 37 15 40 -9
4z"/>
<path d="M3929 6633 c-13 -16 -12 -17 4 -4 9 7 17 15 17 17 0 8 -8 3 -21 -13z"/>
<path d="M3624 6599 c-3 -6 -2 -15 3 -20 5 -5 9 -1 9 11 0 23 -2 24 -12 9z"/>
<path d="M3920 6578 c-15 -21 -17 -28 -6 -19 16 13 41 51 33 51 -2 0 -14 -15
-27 -32z"/>
<path d="M3531 6586 c-14 -17 -1 -28 19 -16 11 7 12 12 4 20 -8 8 -14 7 -23
-4z"/>
<path d="M3865 6460 c-3 -6 1 -7 9 -4 18 7 21 14 7 14 -6 0 -13 -4 -16 -10z"/>
<path d="M5265 6389 c-20 -28 -32 -48 -26 -45 12 8 74 96 67 96 -2 0 -21 -23
-41 -51z"/>
<path d="M3349 6333 c-13 -16 -12 -17 4 -4 9 7 17 15 17 17 0 8 -8 3 -21 -13z"/>
<path d="M3890 6285 c-25 -13 -40 -24 -35 -24 6 0 30 11 55 24 25 13 41 24 35
24 -5 0 -30 -11 -55 -24z"/>
<path d="M4066 6273 c-6 -14 -5 -15 5 -6 7 7 10 15 7 18 -3 3 -9 -2 -12 -12z"/>
<path d="M3982 6070 c0 -14 2 -19 5 -12 2 6 2 18 0 25 -3 6 -5 1 -5 -13z"/>
<path d="M3971 6004 c0 -11 3 -14 6 -6 3 7 2 16 -1 19 -3 4 -6 -2 -5 -13z"/>
<path d="M5870 6006 c0 -2 7 -7 16 -10 8 -3 12 -2 9 4 -6 10 -25 14 -25 6z"/>
<path d="M5940 5976 c0 -2 7 -7 16 -10 8 -3 12 -2 9 4 -6 10 -25 14 -25 6z"/>
<path d="M3965 5871 c-3 -5 -2 -12 3 -15 5 -3 9 1 9 9 0 17 -3 19 -12 6z"/>
<path d="M3973 5814 c0 -17 2 -22 7 -13 5 6 6 18 3 26 -8 19 -10 16 -10 -13z"/>
<path d="M6354 5771 c20 -22 26 -25 26 -13 0 4 -10 13 -22 21 -23 14 -23 14
-4 -8z"/>
<path d="M6264 5698 c17 -16 37 -28 45 -28 8 0 12 -3 9 -6 -6 -5 69 -79 81
-79 3 0 20 -16 38 -35 21 -23 31 -29 29 -18 -2 17 -86 97 -86 82 0 -4 -23 17
-51 45 -28 29 -54 50 -57 47 -3 -4 -13 0 -22 6 -9 7 -3 1 14 -14z"/>
<path d="M6360 5726 c0 -2 8 -10 18 -17 15 -13 16 -12 3 4 -13 16 -21 21 -21
13z"/>
<path d="M6411 5683 c0 -5 19 -24 42 -43 l42 -34 -40 42 c-40 43 -46 47 -44
35z"/>
<path d="M6255 5645 c22 -20 49 -41 60 -47 26 -14 12 0 -50 46 l-50 38 40 -37z"/>
<path d="M3529 5603 c-1 -5 -2 -13 -3 -19 0 -6 -14 -22 -31 -37 -16 -14 -25
-27 -19 -27 11 0 84 74 84 85 0 8 -30 6 -31 -2z"/>
<path d="M6520 5585 c13 -14 26 -25 28 -25 3 0 -5 11 -18 25 -13 14 -26 25
-28 25 -3 0 5 -11 18 -25z"/>
<path d="M6230 5596 c0 -2 8 -10 18 -17 15 -13 16 -12 3 4 -13 16 -21 21 -21
13z"/>
<path d="M6300 5535 c19 -19 36 -35 39 -35 3 0 -10 16 -29 35 -19 19 -36 35
-39 35 -3 0 10 -16 29 -35z"/>
<path d="M6342 5535 c15 -16 29 -27 31 -24 3 2 -10 15 -27 28 l-31 24 27 -28z"/>
<path d="M6458 5465 c84 -98 144 -161 133 -140 -6 11 -49 61 -97 110 -54 56
-67 67 -36 30z"/>
<path d="M6750 5456 c0 -2 8 -10 18 -17 15 -13 16 -12 3 4 -13 16 -21 21 -21
13z"/>
<path d="M6790 5417 c0 -12 44 -77 52 -77 4 0 -4 17 -18 37 -29 43 -34 49 -34
40z"/>
<path d="M4710 5406 c0 -2 7 -7 16 -10 8 -3 12 -2 9 4 -6 10 -25 14 -25 6z"/>
<path d="M2638 5353 c7 -3 16 -2 19 1 4 3 -2 6 -13 5 -11 0 -14 -3 -6 -6z"/>
<path d="M2601 5302 c-7 -14 -6 -19 4 -19 7 0 11 7 7 15 -4 11 -1 13 8 7 9 -5
11 -4 6 3 -10 16 -14 15 -25 -6z"/>
<path d="M6610 5292 c0 -5 7 -15 15 -22 8 -7 15 -8 15 -2 0 5 -7 15 -15 22 -8
7 -15 8 -15 2z"/>
<path d="M6870 5296 c0 -2 8 -10 18 -17 15 -13 16 -12 3 4 -13 16 -21 21 -21
13z"/>
<path d="M6656 5282 c-3 -5 1 -9 9 -9 8 0 12 4 9 9 -3 4 -7 8 -9 8 -2 0 -6 -4
-9 -8z"/>
<path d="M2296 4815 c-3 -9 -6 -22 -5 -28 0 -7 5 -1 10 12 5 13 8 26 5 28 -2
2 -6 -3 -10 -12z"/>
<path d="M2281 4754 c0 -11 3 -14 6 -6 3 7 2 16 -1 19 -3 4 -6 -2 -5 -13z"/>
<path d="M4793 4320 c-72 -36 -111 -77 -154 -163 -27 -53 -32 -73 -33 -142 -1
-69 3 -87 27 -136 16 -30 42 -69 58 -87 17 -18 27 -32 23 -32 -4 0 14 -11 40
-25 27 -14 55 -32 63 -40 17 -18 27 -20 17 -4 -4 8 1 9 17 4 62 -20 217 -7
232 20 4 8 12 13 17 10 11 -7 70 34 70 47 0 5 9 19 21 31 30 32 50 73 53 113
2 19 3 34 1 34 -1 0 -15 -25 -30 -55 -31 -60 -65 -100 -61 -70 1 9 7 20 12 23
24 16 46 82 51 152 7 91 13 104 13 27 0 -32 5 -59 12 -63 8 -5 9 -2 5 9 -4 10
-1 17 6 17 8 0 8 3 -2 9 -10 6 -10 10 -1 13 7 2 14 24 17 50 4 36 0 56 -22 99
-28 58 -68 105 -100 120 -18 9 -19 9 -2 -4 21 -18 22 -31 2 -23 -9 3 1 -15 22
-39 20 -25 40 -45 44 -45 4 0 10 -9 13 -20 3 -11 9 -29 12 -40 3 -11 1 -20 -4
-20 -5 0 -14 18 -21 40 -6 22 -15 40 -19 40 -4 0 -21 12 -37 28 -17 15 -39 34
-50 42 -19 14 -19 14 -6 -2 16 -22 8 -23 -22 -4 -12 8 -33 17 -47 21 -21 7
-23 6 -13 -7 7 -8 9 -19 5 -23 -4 -5 -2 -6 3 -3 6 3 19 -4 30 -15 l20 -20 -22
12 c-20 10 -23 9 -24 -6 0 -16 -1 -16 -9 2 -6 13 -9 15 -9 5 -1 -9 -4 -11 -9
-5 -4 6 -13 10 -19 11 -7 1 -24 2 -37 3 -20 1 -23 6 -22 39 1 36 0 37 -39 41
-34 3 -37 5 -15 10 31 8 35 45 5 49 -11 1 -48 -11 -82 -28z m-73 -133 c-19
-18 -27 -23 -20 -12 27 38 43 55 49 50 3 -3 -10 -20 -29 -38z m-43 -151 c-3
-7 0 -19 6 -25 8 -8 8 -11 -1 -11 -7 0 -12 5 -12 11 0 5 -4 7 -10 4 -5 -3 -10
0 -10 7 0 9 -3 9 -10 -2 -8 -13 -10 -12 -10 3 0 14 5 17 20 12 11 -4 20 -2 20
4 0 6 3 11 6 11 3 0 4 -6 1 -14z m-24 -56 c3 -11 3 -20 1 -20 -2 0 -8 9 -14
20 -6 11 -7 20 -2 20 6 0 12 -9 15 -20z m549 -2 c-6 -26 -42 -76 -42 -60 0 6
5 14 10 17 6 3 10 17 10 30 0 13 6 26 13 28 6 3 13 6 14 6 0 1 -1 -9 -5 -21z"/>
<path d="M5137 4309 c7 -7 15 -10 18 -7 3 3 -2 9 -12 12 -14 6 -15 5 -6 -5z"/>
<path d="M4585 4079 c-4 -6 -5 -12 -2 -15 2 -3 7 2 10 11 7 17 1 20 -8 4z"/>
<path d="M5261 3954 c0 -11 3 -14 6 -6 3 7 2 16 -1 19 -3 4 -6 -2 -5 -13z"/>
<path d="M1435 3920 c-92 -21 -193 -94 -240 -175 -35 -59 -54 -154 -50 -244 4
-76 26 -167 37 -156 3 4 9 -8 13 -25 8 -37 74 -110 99 -110 16 0 15 6 -9 45
-36 62 -59 129 -42 122 10 -4 12 22 10 114 -2 146 12 195 73 254 98 96 267
105 390 22 197 -132 213 -437 29 -535 -46 -24 -166 -25 -228 -2 -61 23 -90 50
-81 73 3 10 53 40 110 68 l104 51 -26 49 c-24 47 -27 50 -55 44 -34 -8 -61 11
-85 57 -21 40 -17 75 9 93 41 27 118 -9 168 -79 37 -51 38 -83 2 -97 -27 -11
-27 -12 -8 -21 30 -14 73 6 81 37 3 14 10 25 15 25 8 0 6 -13 -7 -57 -8 -29
21 -32 36 -4 29 56 -1 160 -66 225 -47 47 -147 96 -196 96 -152 0 -218 -189
-107 -308 17 -18 30 -34 28 -35 -2 -2 -25 -20 -52 -41 -69 -55 -86 -94 -66
-156 27 -84 144 -146 293 -157 51 -3 66 -2 61 7 -5 9 -2 9 11 2 23 -11 47 -5
38 10 -4 7 -2 8 4 4 7 -4 18 -4 25 1 6 4 17 8 22 9 6 0 16 2 23 2 7 1 10 7 6
14 -5 8 -2 9 9 5 9 -3 19 -1 23 5 5 7 2 8 -6 3 -9 -6 -11 -4 -6 4 5 7 15 10
24 6 9 -3 13 -3 9 1 -4 4 11 25 34 46 24 22 37 42 33 49 -4 7 -3 9 3 6 27 -17
78 183 58 230 -4 10 -8 34 -10 53 -3 50 -59 180 -77 180 -5 0 -8 5 -8 12 0 24
-108 116 -174 148 -62 31 -79 35 -160 36 -50 1 -104 -2 -121 -6z m312 -372
c-3 -8 -6 -5 -6 6 -1 11 2 17 5 13 3 -3 4 -12 1 -19z"/>
<path d="M6953 3909 c-2 -23 3 -25 10 -4 4 8 3 16 -1 19 -4 3 -9 -4 -9 -15z"/>
<path d="M6953 3848 c-2 -18 0 -20 7 -8 12 18 13 30 2 30 -4 0 -9 -10 -9 -22z"/>
<path d="M7790 3766 c0 -8 4 -17 9 -20 5 -4 7 3 4 14 -6 23 -13 26 -13 6z"/>
<path d="M2165 3740 c-3 -5 -1 -10 4 -10 6 0 11 5 11 10 0 6 -2 10 -4 10 -3 0
-8 -4 -11 -10z"/>
<path d="M7351 3674 c0 -11 3 -14 6 -6 3 7 2 16 -1 19 -3 4 -6 -2 -5 -13z"/>
<path d="M7810 3661 c0 -6 4 -13 10 -16 6 -3 7 1 4 9 -7 18 -14 21 -14 7z"/>
<path d="M2636 3407 c3 -10 9 -15 12 -12 3 3 0 11 -7 18 -10 9 -11 8 -5 -6z"/>
<path d="M2661 3314 c0 -11 3 -14 6 -6 3 7 2 16 -1 19 -3 4 -6 -2 -5 -13z"/>
<path d="M7181 3294 c0 -11 3 -14 6 -6 3 7 2 16 -1 19 -3 4 -6 -2 -5 -13z"/>
<path d="M7256 3223 c-6 -14 -5 -15 5 -6 7 7 10 15 7 18 -3 3 -9 -2 -12 -12z"/>
<path d="M2596 3207 c3 -10 9 -15 12 -12 3 3 0 11 -7 18 -10 9 -11 8 -5 -6z"/>
<path d="M7123 3173 c4 -3 1 -13 -6 -22 -11 -14 -10 -14 6 -2 20 15 22 31 5
31 -6 0 -8 -3 -5 -7z"/>
<path d="M1810 3078 c-157 -86 -318 -225 -358 -310 -28 -60 -28 -78 0 -114 12
-16 23 -31 25 -33 5 -8 92 -8 131 -1 30 5 39 4 38 -6 -1 -7 -6 -17 -11 -21 -4
-4 -5 -2 -1 5 10 17 0 15 -24 -5 -20 -17 -28 -39 -11 -29 11 7 8 -20 -3 -31
-4 -4 -6 -2 -4 6 1 7 -3 16 -11 19 -10 3 -12 0 -7 -14 4 -10 4 -15 0 -11 -4 4
-16 -7 -26 -23 -19 -33 -25 -110 -7 -110 5 0 8 -4 5 -8 -7 -12 43 -58 76 -71
49 -18 258 -11 378 14 14 3 39 8 55 10 60 11 75 16 167 59 31 14 60 31 64 37
11 19 -19 29 -65 23 -31 -5 -42 -3 -37 5 10 16 -44 14 -118 -5 -95 -25 -96
-25 -191 -38 -80 -11 -118 -12 -190 -7 -68 5 -54 37 55 127 44 36 89 79 101
95 l20 29 -23 43 c-22 39 -27 42 -63 41 -22 -1 -58 -4 -80 -7 -22 -3 -65 -9
-95 -12 l-55 -7 55 54 c68 65 103 94 233 183 56 39 102 77 102 85 0 8 -4 14
-10 13 -79 -12 -80 -12 -62 1 18 14 22 32 10 39 -5 3 -33 -9 -63 -25z"/>
<path d="M7085 3072 c4 -8 0 -18 -10 -26 -15 -11 -16 -13 -2 -13 21 0 31 27
16 41 -9 8 -10 8 -4 -2z"/>
<path d="M6736 3033 c-6 -14 -5 -15 5 -6 7 7 10 15 7 18 -3 3 -9 -2 -12 -12z"/>
<path d="M7026 3025 c-9 -26 -7 -32 5 -12 6 10 9 21 6 23 -2 3 -7 -2 -11 -11z"/>
<path d="M2650 3000 c0 -5 5 -10 10 -10 6 0 10 5 10 10 0 6 -4 10 -10 10 -5 0
-10 -4 -10 -10z"/>
<path d="M6716 2993 c-6 -14 -5 -15 5 -6 7 7 10 15 7 18 -3 3 -9 -2 -12 -12z"/>
<path d="M2800 2941 c0 -6 4 -13 10 -16 6 -3 7 1 4 9 -7 18 -14 21 -14 7z"/>
<path d="M2693 2919 c-2 -23 3 -25 10 -4 4 8 3 16 -1 19 -4 3 -9 -4 -9 -15z"/>
<path d="M2706 2893 c-6 -14 -5 -15 5 -6 7 7 10 15 7 18 -3 3 -9 -2 -12 -12z"/>
<path d="M7486 2895 c-9 -26 -7 -32 5 -12 6 10 9 21 6 23 -2 3 -7 -2 -11 -11z"/>
<path d="M3275 2786 c10 -14 19 -26 22 -26 7 0 -17 39 -28 46 -6 3 -3 -5 6
-20z"/>
<path d="M2896 2767 c3 -10 9 -15 12 -12 3 3 0 11 -7 18 -10 9 -11 8 -5 -6z"/>
<path d="M2316 2393 c-60 -40 -147 -104 -195 -141 -113 -91 -173 -132 -246
-172 -33 -18 -61 -34 -63 -35 -2 -2 9 -26 23 -53 30 -57 28 -57 125 -2 84 48
196 99 245 111 45 11 49 11 65 -9 9 -11 16 -29 15 -39 -2 -34 -64 -111 -148
-184 -124 -109 -152 -140 -137 -149 7 -4 30 -2 51 5 26 10 39 10 41 3 13 -37
207 130 262 224 58 100 41 200 -43 245 l-42 22 58 43 c74 54 108 83 156 132
51 53 31 65 -43 25 -36 -20 -46 -23 -27 -9 26 21 35 45 20 52 -5 2 -57 -29
-117 -69z"/>
<path d="M2700 2316 c0 -2 8 -10 18 -17 15 -13 16 -12 3 4 -13 16 -21 21 -21
13z"/>
<path d="M7203 2005 c-3 -9 2 -24 11 -34 9 -10 14 -25 11 -33 -4 -10 11 -31
40 -59 26 -24 59 -60 75 -79 l28 -35 -40 -17 c-41 -18 -41 -18 -23 2 14 15 16
23 7 32 -19 19 -142 -96 -181 -169 -19 -38 -20 -98 -1 -140 38 -82 105 -129
225 -159 33 -8 102 -5 145 6 36 10 105 59 84 60 -5 1 4 8 19 16 16 8 25 20 21
26 -4 6 -3 8 4 4 6 -3 15 2 21 11 6 10 11 14 11 8 0 -5 7 1 16 13 9 13 13 29
10 37 -3 8 -1 15 3 15 5 0 7 9 4 20 -3 11 -9 20 -14 20 -5 0 -9 5 -9 12 0 6
-23 36 -51 67 -97 106 -134 149 -169 197 -51 71 -160 176 -175 170 -7 -2 -16
2 -19 10 -7 19 -45 18 -53 -1z m247 -345 c28 -36 67 -81 86 -102 33 -36 43
-58 26 -58 -5 0 -22 -14 -39 -30 -55 -54 -120 -59 -212 -19 -46 20 -81 53 -81
76 0 32 31 82 90 146 35 37 66 64 70 60 5 -4 31 -37 60 -73z"/>
<path d="M2415 1792 c-33 -16 -74 -42 -91 -58 -41 -39 -87 -104 -80 -111 3 -3
1 -12 -5 -19 -5 -7 -12 -38 -13 -68 -6 -100 57 -190 141 -202 25 -3 45 0 57 9
19 14 19 15 -12 31 -18 9 -31 22 -30 29 2 7 -10 28 -25 48 -50 66 -33 146 44
207 14 11 19 7 37 -32 22 -46 90 -112 119 -114 93 -8 146 6 201 53 32 27 49
77 38 112 -14 45 -113 120 -143 109 -8 -3 -12 -2 -9 3 9 13 -19 21 -98 27 -64
5 -77 3 -131 -24z m219 -120 l49 -27 -29 -11 c-16 -7 -40 -10 -54 -8 -24 4
-80 58 -80 77 0 14 61 -3 114 -31z m-170 2 c3 -8 2 -12 -4 -9 -6 3 -10 10 -10
16 0 14 7 11 14 -7z"/>
<path d="M2865 1483 c-11 -3 -27 -11 -36 -19 -9 -8 -18 -12 -21 -9 -3 3 -30
-19 -61 -48 -55 -52 -104 -137 -92 -157 3 -6 1 -10 -4 -10 -17 0 -6 -115 16
-156 28 -54 79 -92 133 -99 76 -10 110 35 39 50 -18 4 -27 10 -20 14 7 5 0 17
-20 37 -63 60 -70 111 -25 187 15 26 30 47 34 46 4 0 23 -22 43 -48 59 -77
128 -98 220 -66 136 48 164 176 52 242 -28 16 -50 22 -65 18 -19 -5 -20 -4 -8
5 12 9 9 10 -13 5 -17 -3 -26 -2 -23 4 6 9 -111 13 -149 4z m147 -119 c62 -18
70 -27 39 -44 -39 -20 -86 -12 -114 20 -15 16 -27 32 -27 35 0 10 44 5 102
-11z"/>
<path d="M3425 1417 c-123 -97 -312 -350 -322 -431 -2 -17 -6 -38 -9 -48 -14
-45 71 -128 132 -128 36 0 81 31 70 48 -4 7 -14 12 -22 12 -8 0 -14 7 -14 15
0 8 -13 21 -30 30 -49 25 -45 38 71 197 43 59 116 145 163 191 47 46 86 91 86
99 0 23 -25 29 -47 13 -22 -18 -42 -20 -25 -3 37 37 -7 41 -53 5z"/>
<path d="M6838 1395 c-2 -2 -18 -5 -36 -8 -70 -11 -166 -79 -199 -140 -20 -39
-10 -44 35 -22 56 29 59 29 34 5 -15 -14 -20 -26 -14 -32 6 -6 27 3 58 25 114
81 214 66 328 -50 46 -47 53 -58 43 -74 -6 -10 -15 -15 -19 -13 -4 3 -8 0 -8
-7 0 -7 -3 -9 -6 -6 -4 4 -19 -2 -33 -12 -39 -27 -92 -51 -112 -51 -23 0 -52
54 -44 80 3 10 22 30 41 45 19 15 33 30 30 33 -3 3 3 11 14 19 11 8 20 21 20
29 0 21 -27 29 -47 13 -13 -11 -17 -11 -20 -1 -7 18 -23 15 -65 -14 -47 -33
-75 -76 -82 -130 -6 -35 -2 -48 26 -90 41 -61 99 -95 148 -88 81 12 276 126
281 165 9 67 -4 93 -96 185 -79 79 -163 129 -232 136 -23 3 -44 4 -45 3z"/>
<path d="M6315 1182 c-67 -23 -113 -103 -117 -204 0 -27 -5 -48 -10 -48 -4 0
-8 4 -8 9 0 13 -78 98 -112 122 -76 55 -181 8 -232 -102 l-23 -49 -19 35 c-10
19 -22 35 -26 35 -13 0 -14 -35 -2 -82 14 -55 11 -60 -11 -18 -9 18 -20 27
-29 24 -16 -6 -14 -14 15 -79 9 -22 45 -107 79 -190 34 -82 66 -154 70 -158 4
-5 30 1 58 13 57 25 56 9 10 169 -44 154 -43 216 3 282 22 31 66 43 78 22 4
-8 11 -13 16 -11 4 1 14 -8 23 -22 l14 -25 -21 25 c-11 14 -21 21 -21 16 0
-15 48 -65 55 -58 5 4 5 1 1 -5 -9 -16 9 -52 38 -76 11 -10 15 -16 9 -12 -16
8 -16 0 -2 -26 5 -11 14 -17 18 -15 4 3 8 -5 7 -17 -1 -34 45 -127 63 -127 9
0 33 5 55 11 l38 11 -7 45 c-3 24 -8 54 -11 66 -9 48 -17 104 -19 133 -1 17
-5 36 -9 42 -3 6 -2 13 2 16 5 3 7 17 5 31 -10 47 5 90 38 109 l30 18 37 -39
c21 -22 66 -96 101 -165 60 -119 107 -188 130 -188 10 0 -12 87 -30 123 -7 13
-6 17 6 17 22 0 12 38 -41 145 -75 153 -165 225 -249 197z"/>
<path d="M3686 1101 c-3 -5 -16 -7 -28 -3 -16 4 -19 2 -13 -9 7 -11 6 -12 -6
-3 -18 15 -104 -20 -93 -37 5 -8 3 -9 -6 -4 -17 11 -83 -64 -114 -129 -24 -50
-43 -141 -28 -132 4 2 6 -12 4 -32 -5 -55 49 -140 108 -169 52 -27 90 -29 136
-7 51 24 42 52 -14 45 -7 -1 -15 5 -18 13 -3 9 -24 26 -46 38 -65 37 -83 97
-54 177 16 45 25 47 61 15 78 -68 157 -76 236 -22 86 58 118 136 81 195 -17
28 -97 67 -122 60 -11 -3 -20 0 -20 6 0 8 -4 7 -12 -1 -14 -14 -52 -16 -43 -2
3 6 4 10 1 10 -3 0 -7 -4 -10 -9z m84 -120 l25 -1 -25 -25 c-33 -32 -67 -37
-112 -13 -74 37 -46 46 112 39z m-189 -68 c13 -16 12 -17 -3 -4 -17 13 -22 21
-14 21 2 0 10 -8 17 -17z"/>
<path d="M4437 1062 c-7 -16 -17 -27 -24 -25 -13 5 -17 -7 -33 -92 -6 -33 -16
-74 -21 -92 l-10 -32 -35 21 c-40 24 -42 27 -10 21 15 -3 25 1 29 11 14 35
-209 72 -275 46 -44 -17 -76 -47 -98 -90 -35 -69 -17 -223 37 -307 26 -41 64
-74 76 -66 5 3 7 1 3 -5 -8 -13 29 -26 45 -16 7 4 9 3 6 -3 -6 -10 100 -36
114 -27 5 3 9 0 9 -5 0 -14 37 -14 45 -1 4 6 10 8 14 5 12 -7 44 32 36 44 -3
6 -2 11 3 11 8 0 37 99 62 215 5 22 16 57 24 77 29 69 66 229 57 246 -4 9 -6
23 -4 30 8 22 -7 62 -23 62 -8 0 -20 -13 -27 -28z m-172 -257 c40 -7 69 -13
71 -14 1 -1 -12 -43 -28 -93 -30 -94 -35 -113 -44 -158 -3 -13 -7 -26 -8 -28
-7 -7 -121 29 -137 44 -44 40 -77 158 -62 221 9 39 83 49 208 28z"/>
<path d="M4615 1012 c-11 -2 -25 -8 -31 -13 -23 -19 -37 -126 -36 -280 1 -146
4 -196 18 -295 12 -83 39 -84 51 -1 7 50 7 51 13 17 3 -22 11 -35 20 -35 13 0
15 25 15 163 0 89 2 162 4 162 8 0 41 -44 41 -56 0 -7 3 -21 6 -31 5 -15 4
-16 -6 -3 -10 13 -11 12 -6 -3 3 -10 6 -21 6 -23 0 -3 4 -3 9 0 5 3 11 -3 14
-14 3 -11 1 -18 -3 -15 -4 3 -6 -5 -2 -17 3 -13 7 -17 10 -10 2 8 15 -11 29
-40 13 -29 43 -75 66 -103 23 -27 36 -45 29 -41 -7 4 -31 30 -52 58 -22 27
-40 46 -40 41 0 -15 93 -112 110 -115 8 -2 18 -7 22 -12 6 -10 78 -20 78 -12
0 3 7 31 15 63 9 32 18 74 21 93 2 19 6 42 9 50 6 20 12 63 20 130 3 30 10 80
15 110 5 30 12 73 15 95 3 23 7 50 9 62 7 34 -21 36 -44 4 -11 -16 -20 -33
-20 -38 0 -5 -10 -9 -22 -9 -20 1 -25 -8 -40 -66 -9 -37 -19 -91 -22 -120 -5
-47 -14 -121 -21 -183 -1 -11 -3 -26 -4 -34 -1 -11 -4 -11 -16 -1 -27 22 -63
115 -105 267 -22 80 -54 172 -71 204 -32 60 -41 64 -104 51z"/>
<path d="M5331 907 c-44 -16 -49 -32 -14 -45 15 -6 21 -11 12 -11 -26 -2 -96
-69 -118 -114 -42 -89 -32 -226 23 -305 31 -45 92 -82 138 -84 63 -2 99 2 94
11 -4 5 4 7 16 3 16 -4 19 -2 13 8 -5 9 -4 11 4 6 11 -7 101 38 101 50 0 3 -5
2 -12 -2 -7 -4 -8 -3 -4 4 4 7 14 12 23 12 9 0 14 3 10 6 -3 3 3 16 15 28 50
52 64 160 29 226 -10 19 -26 50 -35 67 -52 98 -207 172 -295 140z m47 -92 c-2
-1 -16 -5 -33 -9 l-30 -6 25 14 c14 8 28 12 33 9 5 -3 7 -6 5 -8z m136 -71
c112 -111 56 -260 -105 -281 -77 -10 -121 69 -104 184 6 39 16 57 56 97 41 41
47 51 37 64 -21 25 85 -34 116 -64z"/>
<path d="M4687 679 c4 -13 8 -18 11 -10 2 7 -1 18 -6 23 -8 8 -9 4 -5 -13z"/>
<path d="M4740 534 c0 -6 7 -19 16 -30 14 -18 14 -18 3 6 -14 31 -19 36 -19
24z"/>
</g>
</svg>
